<?xml version="1.0" standalone="no"?>
<!DOCTYPE svg PUBLIC "-//W3C//DTD SVG 20010904//EN"
 "http://www.w3.org/TR/2001/REC-SVG-20010904/DTD/svg10.dtd">
<svg version="1.0" xmlns="http://www.w3.org/2000/svg"
 width="1067.000000pt" height="805.000000pt" viewBox="0 0 1067.000000 805.000000"
 preserveAspectRatio="xMidYMid meet">

<g transform="translate(0.000000,805.000000) scale(0.100000,-0.100000)"
fill="#000000" stroke="none">
<path d="M5387 7953 c-13 -13 -8 -193 6 -197 6 -3 78 -7 159 -10 169 -6 153
-17 163 110 l7 82 -99 6 c-54 3 -128 8 -164 11 -36 3 -69 2 -72 -2z"/>
<path d="M4845 7923 c-63 -9 -270 -44 -273 -47 -4 -5 35 -176 42 -183 3 -3 52
1 108 10 57 9 125 19 152 23 l48 7 -6 81 c-8 96 -13 116 -29 115 -7 -1 -25 -4
-42 -6z"/>
<path d="M5785 7848 c-3 -46 -8 -90 -11 -99 -4 -14 11 -18 88 -28 51 -7 123
-18 159 -25 l67 -12 17 84 c9 46 19 90 21 97 5 11 -96 32 -292 60 l-42 6 -7
-83z"/>
<path d="M4330 7819 c-80 -23 -147 -43 -149 -45 -9 -9 53 -185 63 -181 14 5
198 54 252 67 l42 10 -19 87 c-10 48 -19 91 -19 95 0 13 -16 9 -170 -33z"/>
<path d="M6567 7658 c-31 -95 -31 -98 -16 -98 6 0 68 -22 138 -50 70 -27 130
-50 134 -50 11 0 78 152 73 165 -4 12 -226 101 -274 111 -27 5 -28 3 -55 -78z"/>
<path d="M5157 7639 c-76 -4 -140 -9 -143 -12 -3 -3 -2 -43 2 -90 l7 -85 136
5 c75 2 142 6 149 9 16 5 13 176 -3 179 -5 1 -72 -2 -148 -6z"/>
<path d="M5385 7641 c-3 -2 -5 -42 -5 -88 0 -58 4 -85 13 -88 6 -2 71 -6 144
-8 l132 -5 5 27 c3 14 8 54 11 88 l7 61 -84 6 c-140 10 -218 12 -223 7z"/>
<path d="M4885 7615 c-5 -1 -63 -11 -127 -21 -135 -20 -128 -12 -102 -125 10
-46 20 -69 28 -66 7 3 70 13 140 23 l128 19 -6 65 c-3 36 -6 75 -6 88 0 21
-21 28 -55 17z"/>
<path d="M5755 7553 c-3 -38 -8 -77 -10 -88 -4 -19 4 -22 118 -38 67 -9 131
-19 143 -23 19 -5 22 1 37 77 10 46 14 86 10 90 -7 6 -251 49 -280 49 -7 0
-14 -29 -18 -67z"/>
<path d="M3572 7524 c-70 -36 -131 -70 -136 -74 -9 -9 72 -160 86 -160 16 0
268 131 268 139 0 19 -70 161 -80 161 -6 0 -68 -30 -138 -66z"/>
<path d="M6938 7508 c-19 -46 -35 -84 -34 -84 0 -1 63 -32 138 -70 l136 -70
47 80 c36 61 43 81 33 88 -23 16 -267 138 -276 138 -4 0 -24 -37 -44 -82z"/>
<path d="M4397 7515 c-66 -18 -121 -35 -123 -37 -2 -2 8 -40 23 -84 l26 -80
120 33 c66 18 129 33 139 33 14 0 17 5 13 23 -3 12 -11 49 -18 82 -17 75 -21
76 -180 30z"/>
<path d="M6117 7469 c-9 -45 -16 -83 -14 -83 20 -9 268 -68 271 -65 2 2 15 38
28 80 l26 77 -107 30 c-58 17 -125 34 -147 38 l-41 6 -16 -83z"/>
<path d="M4051 7400 c-68 -27 -125 -51 -128 -53 -3 -4 50 -134 62 -155 1 -1
19 5 41 14 21 10 80 32 129 50 50 18 89 36 89 41 -7 44 -47 153 -57 152 -7 0
-68 -23 -136 -49z"/>
<path d="M6496 7438 c-2 -7 -14 -42 -25 -77 -12 -36 -19 -67 -16 -69 2 -3 61
-26 130 -53 l126 -47 35 75 c19 42 33 77 31 79 -4 4 -226 90 -255 99 -14 4
-24 2 -26 -7z"/>
<path d="M3280 7359 c-36 -23 -95 -62 -132 -86 l-68 -45 40 -57 c72 -100 69
-97 88 -83 9 6 68 44 129 84 107 68 112 73 99 92 -7 12 -28 47 -46 79 -17 31
-35 57 -38 57 -4 0 -36 -19 -72 -41z"/>
<path d="M7301 7333 c-22 -37 -41 -73 -43 -80 -4 -14 239 -176 252 -168 5 3
31 36 59 74 l49 69 -124 81 c-69 45 -131 84 -139 87 -8 4 -27 -19 -54 -63z"/>
<path d="M5081 7343 l-43 -4 7 -77 c4 -42 8 -78 9 -79 1 -1 60 1 132 5 l129 7
3 78 3 77 -98 -2 c-54 -1 -118 -3 -142 -5z"/>
<path d="M5380 7271 l0 -78 128 -6 c70 -3 130 -2 133 1 4 4 9 39 13 78 l6 71
-62 7 c-33 3 -96 6 -139 6 l-79 0 0 -79z"/>
<path d="M5729 7308 c0 -12 -4 -48 -8 -79 l-7 -55 124 -18 c68 -10 126 -16
128 -13 6 5 33 115 34 133 0 10 -80 28 -227 49 -40 6 -43 5 -44 -17z"/>
<path d="M3707 7244 l-128 -66 28 -46 c15 -26 33 -58 41 -72 l15 -26 111 57
c61 31 118 58 125 61 12 3 8 19 -19 81 -18 42 -36 77 -39 77 -3 -1 -64 -30
-134 -66z"/>
<path d="M6825 7253 c-45 -100 -50 -91 80 -155 63 -32 119 -58 124 -58 5 0 27
31 49 69 l40 69 -128 66 c-70 36 -130 66 -133 66 -3 0 -17 -26 -32 -57z"/>
<path d="M4488 7236 c-65 -18 -120 -34 -122 -37 -8 -8 37 -139 48 -139 28 1
231 59 233 67 6 16 -22 136 -32 139 -6 2 -63 -12 -127 -30z"/>
<path d="M6058 7195 l-15 -75 26 -6 c14 -3 68 -17 119 -31 54 -15 96 -22 101
-17 5 5 18 37 29 71 l21 63 -52 15 c-95 27 -202 55 -207 55 -3 0 -13 -34 -22
-75z"/>
<path d="M7632 7106 c-28 -40 -52 -76 -52 -79 0 -3 39 -37 88 -75 48 -39 100
-81 116 -95 l29 -24 59 65 c32 35 58 68 58 72 0 5 -48 48 -107 96 -60 48 -115
93 -123 100 -13 11 -23 1 -68 -60z"/>
<path d="M2918 7103 c-47 -38 -102 -83 -122 -101 l-37 -32 62 -69 62 -69 87
72 c47 39 101 82 119 97 l34 25 -52 72 c-29 40 -56 72 -61 72 -4 0 -46 -30
-92 -67z"/>
<path d="M4160 7128 c-58 -22 -109 -44 -113 -48 -11 -9 43 -130 58 -130 14 0
213 74 221 83 10 9 -36 137 -49 137 -7 0 -59 -19 -117 -42z"/>
<path d="M6405 7158 c-3 -7 -13 -38 -24 -69 l-19 -56 112 -42 c61 -23 115 -43
119 -44 4 -1 21 27 37 63 34 76 43 65 -102 121 -110 43 -117 45 -123 27z"/>
<path d="M5096 7063 l-29 -5 7 -66 c4 -36 8 -67 9 -68 1 -1 54 1 117 4 l115 7
3 68 3 67 -98 -1 c-54 -1 -111 -4 -127 -6z"/>
<path d="M5380 7001 l0 -68 118 -6 c64 -2 118 -4 118 -3 1 0 5 31 8 67 l7 66
-38 6 c-21 4 -77 7 -125 7 l-88 0 0 -69z"/>
<path d="M4847 7031 c-48 -9 -88 -20 -88 -26 0 -5 5 -36 11 -68 10 -53 13 -58
33 -53 12 3 64 11 115 18 l94 13 -6 35 c-3 19 -6 50 -6 68 0 30 -2 32 -32 31
-18 -1 -73 -9 -121 -18z"/>
<path d="M5696 7004 c-13 -94 -17 -89 87 -103 51 -6 103 -14 114 -17 18 -5 22
1 33 61 7 36 11 67 9 69 -5 4 -200 36 -221 36 -11 0 -17 -14 -22 -46z"/>
<path d="M3841 6985 c-58 -30 -106 -57 -109 -59 -5 -5 55 -113 67 -120 5 -3
162 69 220 101 8 5 -53 133 -63 133 -6 0 -58 -25 -115 -55z"/>
<path d="M6706 6984 c-14 -31 -26 -61 -26 -68 1 -8 163 -97 210 -114 8 -3 84
118 78 123 -17 11 -198 104 -215 109 -18 6 -25 -1 -47 -50z"/>
<path d="M4565 6968 c-60 -16 -112 -31 -113 -33 -7 -7 35 -120 44 -120 6 0
160 36 211 50 3 1 -24 126 -28 129 -2 2 -53 -10 -114 -26z"/>
<path d="M6015 6987 c-7 -23 -25 -120 -23 -122 7 -4 185 -48 201 -49 15 -1 23
13 38 59 10 32 17 60 16 61 -1 1 -53 16 -115 32 -81 22 -114 27 -117 19z"/>
<path d="M3122 6869 c-41 -32 -92 -74 -113 -94 l-40 -36 52 -59 c29 -33 54
-60 56 -60 1 0 50 39 108 86 66 53 103 90 98 97 -4 7 -25 37 -47 68 l-41 56
-73 -58z"/>
<path d="M7453 6860 c-24 -33 -43 -63 -42 -68 0 -4 47 -44 104 -90 l105 -83
54 58 c43 46 52 61 43 72 -19 22 -205 171 -214 171 -4 0 -27 -27 -50 -60z"/>
<path d="M4278 6875 c-138 -54 -131 -46 -106 -103 11 -26 24 -51 28 -56 6 -6
195 56 209 69 4 5 -29 107 -38 117 -3 4 -45 -9 -93 -27z"/>
<path d="M3543 6812 c-57 -37 -103 -71 -103 -75 0 -4 18 -32 40 -62 l40 -54
104 67 104 67 -33 60 c-18 32 -37 60 -42 61 -4 2 -54 -27 -110 -64z"/>
<path d="M7005 6819 c-21 -33 -36 -62 -34 -63 3 -3 150 -99 196 -129 12 -8 96
100 87 114 -4 8 -156 109 -191 127 -20 11 -24 7 -58 -49z"/>
<path d="M5119 6813 c-25 -4 -25 -6 -21 -61 2 -31 6 -58 7 -60 2 -2 50 0 107
5 l103 8 3 58 3 57 -88 -1 c-48 -1 -100 -4 -114 -6z"/>
<path d="M5380 6761 l0 -58 101 -7 c56 -4 104 -5 107 -2 3 4 7 30 10 60 l4 53
-32 7 c-18 3 -68 6 -111 6 l-79 0 0 -59z"/>
<path d="M4891 6784 c-40 -7 -76 -16 -79 -18 -3 -3 0 -31 7 -61 10 -44 16 -55
29 -51 9 3 54 10 100 17 l82 11 0 37 c0 88 -5 90 -139 65z"/>
<path d="M5670 6756 c0 -24 -2 -51 -5 -59 -5 -11 14 -17 87 -27 51 -7 98 -14
104 -17 10 -4 39 105 30 114 -5 5 -168 33 -193 33 -20 0 -23 -5 -23 -44z"/>
<path d="M3975 6739 c-55 -29 -102 -53 -104 -55 -6 -6 57 -109 66 -107 4 1 50
24 100 51 l93 48 -28 57 -27 58 -100 -52z"/>
<path d="M6595 6734 c-14 -31 -25 -58 -25 -60 0 -2 44 -26 98 -53 l98 -49 31
51 c17 29 29 55 26 60 -2 4 -49 30 -104 57 l-99 50 -25 -56z"/>
<path d="M4614 6723 l-92 -26 15 -46 c9 -25 19 -50 23 -54 5 -6 122 17 186 38
17 5 -8 110 -27 112 -8 1 -55 -10 -105 -24z"/>
<path d="M5953 6703 c-4 -27 -8 -52 -8 -57 0 -8 151 -54 182 -56 11 0 49 97
42 105 -6 5 -182 55 -195 55 -7 0 -16 -21 -21 -47z"/>
<path d="M3280 6621 c-123 -98 -120 -91 -70 -151 23 -27 45 -50 48 -50 4 0 49
34 100 76 56 46 90 80 85 87 -6 11 -58 82 -72 99 -3 4 -44 -24 -91 -61z"/>
<path d="M7290 6636 c-22 -31 -40 -59 -39 -63 0 -6 121 -109 174 -147 10 -7
26 4 59 40 25 27 45 52 46 56 0 4 -45 43 -100 88 l-99 80 -41 -54z"/>
<path d="M2811 6595 c-51 -49 -97 -97 -102 -106 -7 -14 4 -28 52 -70 l60 -52
95 94 c52 51 94 97 94 101 0 4 -24 33 -53 64 l-54 58 -92 -89z"/>
<path d="M7733 6621 l-52 -58 99 -98 98 -98 61 53 60 53 -52 56 c-57 61 -152
151 -158 150 -2 0 -27 -26 -56 -58z"/>
<path d="M4348 6633 c-53 -21 -88 -41 -88 -49 0 -8 9 -32 20 -53 l19 -38 94
35 95 35 -17 50 c-10 28 -22 52 -27 53 -5 2 -48 -13 -96 -33z"/>
<path d="M6228 6615 l-15 -54 41 -14 c23 -8 64 -24 93 -36 l52 -20 21 46 c11
25 20 49 20 53 0 6 -179 80 -193 80 -2 0 -11 -25 -19 -55z"/>
<path d="M3699 6579 c-52 -34 -95 -63 -97 -64 -2 -2 13 -26 33 -54 23 -32 41
-48 48 -43 7 4 49 31 95 61 l82 53 -22 37 c-48 79 -35 78 -139 10z"/>
<path d="M6897 6633 c-2 -4 -16 -29 -31 -55 l-27 -46 86 -56 c48 -31 90 -57
95 -59 9 -2 70 78 70 93 0 17 -186 136 -193 123z"/>
<path d="M2350 6552 c-95 -115 -143 -183 -134 -191 5 -5 38 -29 74 -55 l65
-47 25 33 c14 18 57 71 97 119 l72 88 -68 60 c-38 34 -70 61 -72 60 -2 0 -29
-30 -59 -67z"/>
<path d="M8218 6558 l-68 -63 96 -117 96 -118 57 40 c105 76 102 58 28 152
-36 46 -83 102 -104 126 l-38 43 -67 -63z"/>
<path d="M5143 6583 c-18 -3 -23 -11 -23 -36 0 -72 1 -73 103 -67 l92 5 3 53
3 52 -78 -1 c-43 -1 -88 -4 -100 -6z"/>
<path d="M5380 6537 l0 -56 94 -3 94 -3 7 49 c3 26 3 51 0 54 -3 3 -48 8 -100
10 l-95 4 0 -55z"/>
<path d="M4940 6559 c-94 -18 -89 -13 -77 -66 6 -27 11 -49 12 -50 1 -3 177
26 180 29 1 2 0 24 -3 51 -4 45 -5 47 -36 46 -17 -1 -51 -5 -76 -10z"/>
<path d="M5646 6523 c-3 -25 -4 -48 -1 -51 8 -9 170 -30 177 -23 4 3 8 26 10
50 l3 45 -65 12 c-113 22 -116 21 -124 -33z"/>
<path d="M4088 6514 c-49 -24 -88 -49 -88 -55 0 -9 28 -62 46 -87 2 -3 162 75
173 84 4 4 -30 94 -38 98 -3 2 -45 -16 -93 -40z"/>
<path d="M6500 6520 c-11 -21 -20 -45 -20 -52 0 -8 38 -32 84 -55 91 -46 89
-46 121 16 20 39 25 34 -87 91 l-78 40 -20 -40z"/>
<path d="M4667 6497 c-74 -22 -74 -22 -48 -90 l10 -24 86 21 86 21 -7 40 c-3
22 -8 43 -11 48 -7 11 -42 7 -116 -16z"/>
<path d="M5905 6474 c-3 -25 -5 -47 -3 -48 2 -2 33 -10 69 -19 36 -9 73 -19
82 -23 17 -6 27 10 40 67 7 26 5 27 -71 48 -108 29 -109 29 -117 -25z"/>
<path d="M7546 6414 l-48 -53 89 -89 90 -88 53 49 53 49 -94 92 -94 93 -49
-53z"/>
<path d="M3010 6375 c-47 -47 -86 -88 -88 -93 -1 -5 21 -28 49 -52 l51 -43 84
84 c46 46 84 86 84 90 0 9 -80 99 -89 99 -4 0 -45 -38 -91 -85z"/>
<path d="M3437 6389 l-87 -71 40 -49 41 -48 84 67 c46 37 84 71 84 75 1 9 -61
96 -69 97 -3 0 -45 -32 -93 -71z"/>
<path d="M7128 6411 l-37 -49 82 -66 c45 -36 85 -66 89 -66 4 0 26 20 47 43
l40 43 -85 70 c-47 38 -88 70 -92 72 -4 1 -24 -20 -44 -47z"/>
<path d="M4435 6418 c-44 -17 -82 -32 -84 -34 -6 -5 30 -84 38 -84 6 0 154 52
159 56 5 3 -18 77 -27 86 -3 4 -42 -7 -86 -24z"/>
<path d="M6160 6405 c-7 -25 -11 -47 -9 -48 10 -7 146 -57 155 -57 6 0 18 18
27 40 15 38 15 41 -4 51 -19 10 -146 59 -153 59 -2 0 -9 -20 -16 -45z"/>
<path d="M3843 6374 c-101 -68 -98 -63 -63 -111 l31 -42 77 50 c42 28 79 52
81 55 5 5 -42 94 -51 94 -4 0 -37 -21 -75 -46z"/>
<path d="M6747 6374 c-15 -26 -27 -47 -25 -49 2 -1 30 -18 63 -39 33 -20 69
-43 81 -51 19 -14 22 -12 53 29 l32 45 -76 51 c-41 28 -81 53 -88 55 -7 3 -24
-15 -40 -41z"/>
<path d="M2580 6343 c-70 -86 -120 -151 -120 -157 0 -2 30 -25 66 -51 65 -47
66 -47 81 -26 8 12 46 60 86 108 l71 86 -59 54 c-33 29 -62 53 -65 53 -3 0
-30 -30 -60 -67z"/>
<path d="M7992 6357 l-59 -55 47 -54 c25 -31 63 -78 84 -107 21 -28 40 -51 42
-51 5 0 110 75 127 90 8 7 -131 190 -166 218 -14 12 -24 6 -75 -41z"/>
<path d="M5193 6373 c-57 -4 -62 -13 -47 -71 6 -22 10 -23 88 -20 l81 3 0 45
c0 45 0 45 -35 46 -19 0 -59 -1 -87 -3z"/>
<path d="M4970 6346 l-65 -11 3 -40 c2 -22 5 -41 7 -43 5 -5 142 10 153 17 6
4 8 24 5 49 -6 47 -2 46 -103 28z"/>
<path d="M5625 6319 c-8 -47 1 -58 50 -59 17 0 46 -4 67 -9 36 -8 36 -8 47 32
12 48 8 52 -58 61 -25 4 -58 9 -73 12 -24 5 -27 2 -33 -37z"/>
<path d="M6406 6314 c-9 -19 -16 -39 -16 -44 0 -10 131 -80 150 -80 5 0 18 17
29 38 l20 38 -83 41 -83 41 -17 -34z"/>
<path d="M4745 6295 c-85 -24 -86 -25 -64 -82 6 -17 15 -23 27 -19 9 3 43 12
75 21 60 17 62 21 48 76 l-6 25 -80 -21z"/>
<path d="M2071 6176 c-44 -67 -83 -129 -86 -137 -4 -10 17 -28 69 -57 40 -23
78 -42 83 -42 5 0 17 15 27 33 11 17 45 71 77 119 33 48 59 91 59 96 0 7 -101
85 -136 105 -7 4 -43 -41 -93 -117z"/>
<path d="M8462 6244 l-72 -54 53 -78 c30 -42 66 -98 82 -124 15 -27 31 -48 37
-48 7 0 140 73 156 86 5 3 -172 274 -178 273 -3 0 -38 -25 -78 -55z"/>
<path d="M3202 6177 l-83 -83 49 -41 49 -42 77 78 77 78 -43 47 -43 47 -83
-84z"/>
<path d="M3598 6196 c-42 -33 -77 -63 -77 -66 0 -3 15 -22 35 -43 l35 -38 72
57 c40 32 74 59 76 61 4 3 -48 81 -58 87 -3 2 -41 -24 -83 -58z"/>
<path d="M6988 6219 c-16 -22 -28 -43 -28 -47 0 -4 26 -27 57 -52 96 -76 85
-74 127 -31 l38 38 -74 60 c-40 33 -77 62 -83 65 -5 3 -22 -12 -37 -33z"/>
<path d="M7365 6210 l-39 -40 79 -80 80 -79 43 40 c33 31 40 44 33 57 -12 22
-137 142 -148 142 -5 0 -27 -18 -48 -40z"/>
<path d="M4498 6212 l-66 -27 19 -36 18 -37 71 26 c72 28 77 33 60 76 -12 32
-18 32 -102 -2z"/>
<path d="M6094 6201 c-10 -36 -9 -40 10 -44 12 -2 45 -14 74 -26 l53 -21 14
35 c8 19 15 36 15 39 0 6 -128 56 -143 56 -7 0 -18 -18 -23 -39z"/>
<path d="M3958 6174 c-38 -24 -68 -50 -68 -56 1 -7 11 -26 25 -42 l24 -30 61
42 c34 22 67 43 73 45 13 4 -24 80 -40 84 -4 1 -38 -18 -75 -43z"/>
<path d="M6640 6188 c-11 -18 -20 -37 -20 -43 1 -10 139 -100 144 -94 1 2 12
17 24 33 12 16 22 32 22 36 0 7 -84 66 -127 89 -21 10 -25 8 -43 -21z"/>
<path d="M7783 6169 l-51 -49 57 -69 c32 -38 67 -82 78 -97 l20 -27 56 43 c32
23 57 45 57 48 0 6 -149 190 -159 196 -3 2 -30 -18 -58 -45z"/>
<path d="M2803 6153 c-27 -32 -63 -76 -81 -99 l-31 -41 60 -42 c59 -42 61 -42
74 -23 8 10 41 52 75 93 33 41 60 77 60 81 0 8 -91 88 -100 88 -5 0 -30 -26
-57 -57z"/>
<path d="M5198 6183 c-32 -4 -38 -8 -38 -28 0 -56 23 -65 123 -48 37 6 38 7
35 42 -3 35 -5 36 -43 37 -22 1 -57 -1 -77 -3z"/>
<path d="M5380 6153 c0 -37 2 -41 31 -47 17 -3 51 -6 74 -6 41 0 43 1 48 37 4
20 5 38 4 39 -1 2 -37 6 -80 10 l-77 7 0 -40z"/>
<path d="M4992 6158 l-54 -10 7 -36 c4 -21 8 -37 8 -38 1 -1 35 4 75 9 55 8
71 14 67 25 -3 7 -5 25 -5 38 0 27 -9 28 -98 12z"/>
<path d="M5605 6134 c-3 -20 -5 -37 -3 -38 8 -7 140 -22 142 -17 2 3 7 20 10
37 l7 30 -64 12 c-87 16 -84 17 -92 -24z"/>
<path d="M4293 6119 c-73 -38 -77 -43 -64 -65 27 -48 25 -48 92 -13 35 18 66
34 68 35 5 4 -20 63 -29 69 -5 3 -34 -9 -67 -26z"/>
<path d="M6322 6125 c-7 -14 -12 -32 -12 -38 0 -11 129 -82 135 -75 1 2 10 18
19 35 l16 33 -70 35 c-38 19 -71 35 -73 35 -2 0 -9 -11 -15 -25z"/>
<path d="M4783 6109 l-61 -19 10 -34 10 -33 67 17 c36 9 66 22 65 28 -1 7 -2
23 -2 37 -2 30 -8 30 -89 4z"/>
<path d="M5825 6099 c-4 -17 -4 -33 0 -37 7 -7 128 -42 132 -38 1 1 4 17 5 36
3 31 0 34 -37 45 -94 28 -93 28 -100 -6z"/>
<path d="M2324 5994 c-86 -131 -86 -120 8 -173 l57 -32 76 117 c42 64 75 117
73 118 -2 1 -29 21 -60 44 -31 23 -62 42 -68 42 -6 0 -45 -52 -86 -116z"/>
<path d="M3380 5999 l-72 -74 37 -32 c21 -18 41 -33 44 -33 4 0 37 31 74 68
l67 68 -39 38 -39 38 -72 -73z"/>
<path d="M3747 6021 c-32 -27 -63 -53 -68 -58 -5 -5 4 -21 25 -42 l33 -32 66
54 66 54 -25 37 c-14 20 -28 36 -32 35 -4 0 -33 -22 -65 -48z"/>
<path d="M4625 6059 c-11 -5 -42 -18 -68 -29 l-48 -20 16 -29 15 -30 58 21
c31 12 60 24 63 27 4 3 1 20 -5 37 -9 26 -14 30 -31 23z"/>
<path d="M6856 6037 c-14 -19 -26 -36 -26 -39 0 -2 30 -28 67 -58 l66 -53 29
32 c15 17 28 35 28 39 -1 7 -99 89 -126 105 -8 5 -22 -4 -38 -26z"/>
<path d="M7202 6030 l-34 -39 71 -68 70 -68 40 35 41 36 -73 72 c-40 39 -75
72 -77 71 -3 0 -20 -18 -38 -39z"/>
<path d="M6039 6033 c-12 -31 -10 -33 60 -62 58 -23 66 -21 76 20 6 24 2 27
-50 47 -71 28 -73 28 -86 -5z"/>
<path d="M4077 5995 l-67 -45 22 -34 22 -34 61 41 c33 22 61 41 63 43 2 1 -5
18 -15 38 l-18 36 -68 -45z"/>
<path d="M6537 6010 c-10 -15 -17 -32 -17 -38 0 -8 110 -82 122 -82 2 0 14 13
26 29 l21 29 -68 45 -68 45 -16 -28z"/>
<path d="M3024 5982 c-22 -26 -54 -66 -72 -89 l-33 -42 47 -36 c26 -19 51 -34
54 -33 4 2 37 40 73 84 l66 81 -32 30 c-63 58 -60 58 -103 5z"/>
<path d="M7582 5987 l-42 -42 61 -75 c34 -41 65 -79 69 -84 5 -5 31 7 59 28
l50 37 -39 51 c-56 70 -106 128 -111 128 -3 0 -24 -19 -47 -43z"/>
<path d="M5380 5988 c0 -33 2 -36 38 -42 84 -14 102 -6 102 45 0 13 -7 19 -24
19 -13 0 -44 3 -70 6 l-46 7 0 -35z"/>
<path d="M5588 5967 l-4 -35 60 -6 c62 -6 76 0 76 36 0 16 -9 19 -91 34 -36 6
-37 5 -41 -29z"/>
<path d="M4373 5947 c-35 -17 -63 -34 -63 -37 0 -3 9 -15 18 -28 l18 -24 57
28 c60 30 64 36 44 70 l-12 22 -62 -31z"/>
<path d="M6245 5950 l-15 -30 61 -31 c64 -32 63 -32 89 12 7 12 -4 22 -55 47
l-65 32 -15 -30z"/>
<path d="M4823 5943 c-51 -15 -51 -15 -41 -44 7 -21 15 -28 27 -25 9 3 35 10
59 16 41 11 48 21 36 54 -7 19 -14 19 -81 -1z"/>
<path d="M5795 5945 c-3 -8 -7 -21 -9 -29 -3 -10 13 -18 57 -29 34 -9 62 -15
63 -14 1 1 5 14 9 29 6 25 4 27 -48 42 -67 20 -67 20 -72 1z"/>
<path d="M2570 5839 c-39 -61 -70 -112 -68 -114 2 -2 30 -19 63 -38 l59 -35
68 105 c38 58 68 106 66 108 -2 1 -29 20 -60 43 l-56 41 -72 -110z"/>
<path d="M8001 5909 c-30 -22 -57 -42 -59 -44 -2 -2 26 -51 63 -109 l67 -104
61 35 c34 20 63 37 64 38 2 1 -30 51 -70 112 l-72 111 -54 -39z"/>
<path d="M8680 5910 c-36 -22 -69 -41 -73 -43 -5 -1 20 -59 56 -128 35 -69 66
-132 69 -140 4 -11 23 -5 91 25 48 21 87 41 87 43 0 17 -145 283 -154 283 -6
-1 -40 -19 -76 -40z"/>
<path d="M4633 5878 c-49 -19 -51 -21 -42 -48 l10 -27 57 20 c31 11 58 21 60
22 6 4 -18 55 -25 54 -5 0 -31 -9 -60 -21z"/>
<path d="M5986 5874 c-4 -15 -6 -27 -4 -28 9 -7 95 -36 104 -36 6 0 16 11 22
24 10 23 8 25 -47 45 -32 12 -60 21 -63 21 -3 0 -9 -12 -12 -26z"/>
<path d="M7054 5864 l-27 -35 60 -61 60 -60 33 29 33 30 -26 35 c-15 19 -44
49 -66 66 l-40 32 -27 -36z"/>
<path d="M3873 5847 c-29 -23 -52 -44 -52 -47 0 -3 10 -18 23 -34 l24 -29 59
50 60 50 -19 26 c-11 15 -25 27 -31 27 -7 0 -35 -20 -64 -43z"/>
<path d="M4178 5835 c-51 -32 -57 -39 -47 -56 6 -11 16 -22 23 -25 14 -5 116
54 116 66 0 4 -8 17 -17 29 l-18 22 -57 -36z"/>
<path d="M6442 5845 c-7 -14 -12 -27 -12 -29 0 -2 24 -19 54 -39 l55 -36 19
27 20 27 -56 37 c-32 21 -60 38 -63 38 -3 0 -11 -11 -17 -25z"/>
<path d="M3220 5827 c-14 -17 -42 -52 -62 -78 l-37 -46 44 -32 44 -31 62 76
63 77 -40 33 c-21 19 -41 34 -44 33 -3 0 -16 -14 -30 -32z"/>
<path d="M7400 5825 c-24 -25 -30 -38 -23 -47 56 -72 108 -133 112 -133 13 0
81 51 81 60 0 13 -118 155 -128 155 -5 0 -23 -16 -42 -35z"/>
<path d="M5214 5843 c-16 -3 -20 -10 -16 -31 3 -27 5 -27 60 -22 53 5 57 7 57
30 0 22 -4 25 -40 26 -22 1 -49 0 -61 -3z"/>
<path d="M5380 5820 c0 -29 2 -30 44 -30 24 0 51 -3 60 -6 12 -5 16 1 16 24 0
33 -17 42 -82 42 -36 0 -38 -2 -38 -30z"/>
<path d="M5038 5823 c-28 -4 -34 -17 -22 -47 4 -11 15 -14 37 -10 75 12 78 14
75 37 -3 23 -32 29 -90 20z"/>
<path d="M5570 5806 c0 -26 2 -28 77 -40 27 -4 32 -2 38 21 3 14 5 27 3 28 -2
2 -29 6 -60 10 -58 7 -58 7 -58 -19z"/>
<path d="M6180 5801 c-15 -28 -15 -28 41 -56 49 -25 51 -25 65 -8 19 26 19 27
-35 56 -58 32 -58 32 -71 8z"/>
<path d="M2135 5669 c-37 -72 -65 -132 -63 -133 11 -8 151 -66 153 -64 1 2 29
58 63 125 l61 122 -67 37 c-37 20 -70 38 -73 40 -4 2 -37 -55 -74 -127z"/>
<path d="M4878 5784 c-46 -14 -56 -26 -40 -51 5 -8 19 -9 55 0 42 9 47 13 47
39 0 32 1 32 -62 12z"/>
<path d="M5759 5786 c-1 -9 -2 -21 -3 -28 -1 -9 94 -43 100 -35 1 1 5 12 8 24
6 19 2 23 -34 33 -23 6 -48 14 -56 17 -8 3 -15 -1 -15 -11z"/>
<path d="M8422 5761 c-34 -21 -65 -40 -67 -43 -4 -3 108 -234 119 -245 7 -7
146 61 146 71 0 14 -123 256 -130 256 -3 -1 -33 -18 -68 -39z"/>
<path d="M7778 5747 c-51 -35 -55 -42 -34 -66 7 -9 34 -48 58 -88 l44 -71 57
32 56 32 -55 85 c-78 118 -71 114 -126 76z"/>
<path d="M6628 5724 c-10 -12 -18 -25 -18 -27 0 -3 23 -24 51 -48 l51 -43 18
24 c22 29 23 28 -38 78 l-47 40 -17 -24z"/>
<path d="M3697 5682 l-57 -58 31 -23 31 -23 49 48 c27 27 49 53 49 59 0 7 -10
21 -23 33 l-23 22 -57 -58z"/>
<path d="M3992 5698 l-53 -42 25 -24 24 -25 51 43 c47 40 50 45 38 64 -21 30
-28 29 -85 -16z"/>
<path d="M4695 5723 c-51 -21 -48 -18 -36 -42 11 -19 13 -19 57 -4 36 12 44
19 42 36 -4 27 -15 29 -63 10z"/>
<path d="M5937 5718 c-4 -12 -5 -23 -4 -24 12 -8 97 -31 101 -26 18 17 2 41
-37 56 -54 20 -54 20 -60 -6z"/>
<path d="M6917 5712 l-27 -28 55 -54 55 -54 27 27 28 27 -56 55 -55 56 -27
-29z"/>
<path d="M4268 5689 c-46 -30 -47 -31 -32 -55 l16 -24 47 32 c25 17 47 32 49
34 6 4 -18 44 -26 44 -4 0 -28 -14 -54 -31z"/>
<path d="M6360 5701 c-14 -28 -15 -26 38 -59 l47 -29 16 21 c16 20 15 22 -32
53 -26 18 -50 33 -53 33 -3 0 -10 -9 -16 -19z"/>
<path d="M3366 5640 c-32 -39 -55 -74 -52 -77 3 -3 20 -15 37 -28 l33 -22 46
56 c64 77 63 74 26 110 l-33 32 -57 -71z"/>
<path d="M7236 5677 l-38 -32 22 -20 c12 -11 37 -41 57 -67 l35 -48 38 27 38
28 -26 36 c-15 19 -41 52 -57 72 l-30 36 -39 -32z"/>
<path d="M5073 5673 c-18 -2 -33 -8 -33 -13 0 -22 13 -37 28 -34 66 12 72 15
72 34 0 20 -2 21 -67 13z"/>
<path d="M5556 5664 c-9 -23 -4 -26 48 -34 39 -6 45 -4 50 14 6 25 10 22 -45
30 -38 6 -48 4 -53 -10z"/>
<path d="M4527 5644 c-41 -22 -46 -27 -37 -44 10 -19 11 -19 55 2 45 22 52 32
37 54 -5 9 -21 5 -55 -12z"/>
<path d="M6116 5663 c-17 -17 -2 -41 38 -61 l45 -21 6 20 c4 11 5 22 3 24 -15
13 -87 43 -92 38z"/>
<path d="M2397 5541 c-31 -59 -57 -112 -57 -117 0 -8 130 -69 134 -62 0 2 25
51 55 111 30 59 52 109 50 111 -7 7 -116 66 -120 66 -3 0 -31 -49 -62 -109z"/>
<path d="M4915 5637 c-31 -9 -40 -16 -37 -30 3 -16 10 -18 40 -12 47 9 52 12
52 36 0 21 0 21 -55 6z"/>
<path d="M5727 5629 c-4 -14 3 -21 31 -29 52 -14 62 -13 62 8 0 14 -12 21 -44
29 -40 9 -45 8 -49 -8z"/>
<path d="M8173 5617 c-29 -17 -53 -35 -53 -39 0 -7 98 -208 105 -216 2 -2 33
10 69 27 l66 30 -57 115 c-32 64 -62 116 -68 115 -5 0 -34 -15 -62 -32z"/>
<path d="M7600 5618 c-14 -11 -34 -26 -44 -34 -18 -12 -17 -17 34 -94 29 -44
55 -80 58 -80 3 0 25 11 49 25 l43 26 -36 57 c-20 31 -46 71 -58 88 l-21 32
-25 -20z"/>
<path d="M3013 5548 c-28 -45 -50 -86 -47 -90 6 -10 85 -51 88 -46 19 23 107
160 104 162 -1 1 -20 14 -40 29 -20 15 -40 27 -45 27 -4 0 -31 -37 -60 -82z"/>
<path d="M4139 5596 c-9 -6 -30 -24 -48 -39 -32 -27 -33 -29 -16 -47 17 -19
18 -18 61 13 46 34 50 43 31 68 -10 13 -16 14 -28 5z"/>
<path d="M6527 5586 c-15 -23 -14 -25 21 -53 54 -43 58 -44 76 -24 16 18 14
21 -32 60 l-50 41 -15 -24z"/>
<path d="M3827 5552 l-47 -48 25 -24 26 -24 46 46 46 46 -19 26 c-11 14 -21
26 -24 26 -3 0 -27 -22 -53 -48z"/>
<path d="M4753 5582 c-45 -17 -47 -19 -35 -39 6 -10 17 -9 50 4 43 17 47 20
34 39 -5 8 -19 7 -49 -4z"/>
<path d="M6797 5582 c-24 -27 -22 -33 28 -82 l45 -44 22 22 23 22 -51 51 c-48
48 -51 49 -67 31z"/>
<path d="M1701 5462 c-27 -70 -54 -139 -60 -154 l-10 -27 91 -30 92 -29 53
140 c29 78 53 144 53 148 0 4 -21 16 -47 28 -27 11 -65 27 -85 36 l-37 16 -50
-128z"/>
<path d="M5890 5576 c0 -8 17 -21 38 -29 34 -14 38 -14 50 1 11 15 8 18 -20
29 -45 16 -68 16 -68 -1z"/>
<path d="M6273 5555 c-3 -9 -4 -17 -2 -19 30 -22 81 -46 89 -41 19 12 10 33
-24 54 -40 25 -55 26 -63 6z"/>
<path d="M3536 5506 c-25 -29 -46 -57 -46 -63 0 -5 13 -19 28 -30 l28 -21 48
60 47 60 -22 24 c-12 13 -26 24 -30 24 -4 0 -28 -24 -53 -54z"/>
<path d="M7081 5536 l-23 -25 43 -55 c24 -31 48 -56 54 -56 20 1 57 39 49 52
-15 26 -86 108 -93 108 -4 0 -18 -11 -30 -24z"/>
<path d="M5230 5532 c0 -14 7 -17 45 -14 30 3 45 9 45 18 0 10 -13 14 -45 14
-36 0 -45 -3 -45 -18z"/>
<path d="M5380 5536 c0 -9 15 -15 45 -18 38 -3 45 0 45 14 0 15 -9 18 -45 18
-32 0 -45 -4 -45 -14z"/>
<path d="M5098 5533 c-38 -6 -37 -33 1 -33 39 0 61 9 61 26 0 14 -9 15 -62 7z"/>
<path d="M5540 5527 c0 -25 71 -39 85 -16 9 14 7 16 -42 24 -35 5 -43 4 -43
-8z"/>
<path d="M4597 5508 c-33 -16 -47 -40 -24 -39 23 0 77 27 77 37 0 22 -14 23
-53 2z"/>
<path d="M6056 5523 c-14 -14 -4 -30 29 -46 43 -21 42 -21 49 -2 4 10 -7 21
-33 35 -21 10 -41 16 -45 13z"/>
<path d="M2643 5406 l-52 -103 58 -25 58 -25 51 99 51 98 -25 15 c-13 8 -35
22 -49 30 -13 8 -28 15 -32 15 -5 0 -32 -47 -60 -104z"/>
<path d="M4953 5499 c-19 -6 -33 -16 -33 -25 0 -10 6 -14 18 -10 9 2 27 7 40
11 12 3 22 13 22 21 0 16 -2 16 -47 3z"/>
<path d="M5700 5496 c0 -9 14 -19 33 -24 33 -9 47 -7 47 8 0 8 -8 11 -62 26
-12 4 -18 0 -18 -10z"/>
<path d="M7945 5485 c-22 -14 -44 -26 -49 -28 -4 -1 15 -49 43 -104 l51 -102
59 27 59 27 -51 99 c-29 55 -56 101 -62 102 -5 2 -28 -8 -50 -21z"/>
<path d="M3248 5482 c-9 -9 -32 -44 -52 -76 -40 -63 -41 -61 17 -92 l27 -15
45 70 c25 38 45 72 45 74 0 3 -15 16 -34 30 -31 25 -35 25 -48 9z"/>
<path d="M7399 5472 l-36 -26 45 -71 c24 -38 46 -72 48 -73 1 -2 21 7 43 20
l40 24 -50 77 c-27 42 -50 77 -51 77 -2 -1 -19 -13 -39 -28z"/>
<path d="M3952 5427 c-41 -42 -42 -44 -24 -60 17 -16 21 -14 60 26 41 42 42
44 24 60 -17 16 -21 14 -60 -26z"/>
<path d="M4211 5438 c-38 -27 -41 -32 -27 -46 13 -13 19 -12 54 14 34 25 38
32 28 47 -12 15 -16 14 -55 -15z"/>
<path d="M6431 5452 c-7 -14 -2 -24 28 -49 35 -29 39 -30 54 -16 14 14 12 19
-25 49 -22 19 -42 34 -44 34 -2 0 -8 -8 -13 -18z"/>
<path d="M6681 5449 c-12 -20 -9 -25 26 -60 37 -38 39 -39 62 -23 l23 16 -43
44 c-24 24 -46 44 -49 44 -3 0 -11 -10 -19 -21z"/>
<path d="M1988 5343 c-25 -65 -49 -127 -52 -138 -5 -18 3 -24 75 -47 56 -19
81 -23 84 -15 5 16 81 218 89 238 5 11 -10 23 -66 47 -40 18 -76 32 -79 32 -3
0 -27 -53 -51 -117z"/>
<path d="M4798 5448 c-27 -9 -35 -22 -20 -32 11 -7 72 21 72 34 0 12 -16 12
-52 -2z"/>
<path d="M5850 5447 c0 -18 68 -39 73 -23 2 6 -10 17 -26 24 -37 15 -47 15
-47 -1z"/>
<path d="M3682 5387 c-23 -30 -42 -56 -42 -59 0 -3 11 -13 24 -21 23 -16 25
-15 66 34 l43 51 -25 25 -25 24 -41 -54z"/>
<path d="M6205 5429 c-4 -6 -5 -11 -4 -13 56 -41 67 -45 78 -32 9 11 5 18 -22
35 -39 24 -43 25 -52 10z"/>
<path d="M6948 5416 l-27 -21 28 -30 c15 -17 34 -41 43 -54 16 -23 17 -23 42
-5 14 11 25 21 25 24 1 3 -19 28 -42 56 l-43 51 -26 -21z"/>
<path d="M4658 5384 c-27 -14 -38 -34 -18 -34 20 0 60 24 60 37 0 16 -8 16
-42 -3z"/>
<path d="M5995 5390 c-8 -13 55 -44 66 -33 6 6 -5 16 -26 26 -19 9 -37 12 -40
7z"/>
<path d="M2868 5296 l-47 -93 50 -23 c27 -13 51 -22 53 -19 8 9 87 171 84 174
-7 6 -88 55 -91 55 -1 0 -23 -42 -49 -94z"/>
<path d="M3390 5309 c-22 -34 -40 -65 -40 -68 0 -8 60 -45 64 -39 2 1 21 31
44 65 l41 61 -22 14 c-12 8 -28 18 -34 22 -9 5 -26 -14 -53 -55z"/>
<path d="M7227 5347 l-28 -22 37 -55 c20 -30 40 -59 44 -63 6 -7 34 5 69 30 5
3 -80 133 -88 133 -3 0 -18 -10 -34 -23z"/>
<path d="M6346 5334 c-6 -16 36 -59 59 -59 21 0 9 28 -21 52 -28 21 -32 22
-38 7z"/>
<path d="M2291 5318 c-44 -112 -81 -211 -81 -217 0 -7 113 -46 133 -46 5 0 26
45 47 100 21 55 41 107 44 115 5 12 -9 22 -56 43 -76 33 -76 33 -87 5z"/>
<path d="M4065 5310 c-22 -23 -27 -35 -20 -46 14 -21 15 -21 57 19 27 25 34
37 25 46 -17 17 -31 13 -62 -19z"/>
<path d="M4300 5315 c-34 -37 -13 -51 28 -19 31 25 35 44 8 44 -7 0 -23 -11
-36 -25z"/>
<path d="M6571 5327 c-8 -10 -3 -21 24 -47 29 -28 36 -31 50 -20 14 12 12 17
-17 47 -36 37 -41 39 -57 20z"/>
<path d="M3810 5274 c-33 -44 -33 -47 -15 -60 26 -19 26 -19 62 30 30 42 31
45 14 60 -10 9 -19 16 -22 16 -2 0 -20 -21 -39 -46z"/>
<path d="M4517 5301 c-18 -11 -25 -21 -18 -25 13 -9 72 24 65 36 -8 12 -16 10
-47 -11z"/>
<path d="M6136 5312 c-6 -11 53 -46 62 -37 4 3 -4 15 -18 25 -28 22 -36 24
-44 12z"/>
<path d="M6820 5305 c-13 -15 -10 -23 29 -72 30 -37 29 -37 55 -18 18 14 17
16 -18 60 -41 49 -48 52 -66 30z"/>
<path d="M3078 5200 c-33 -60 -47 -100 -34 -100 2 0 20 -7 40 -15 l36 -15 39
78 40 79 -38 22 c-22 11 -40 21 -42 21 -2 0 -21 -32 -41 -70z"/>
<path d="M7535 5249 c-16 -10 -30 -22 -30 -26 0 -5 16 -39 35 -78 19 -38 35
-71 36 -72 2 -7 84 31 84 38 0 19 -75 159 -85 158 -5 0 -23 -9 -40 -20z"/>
<path d="M3558 5223 c-51 -78 -52 -81 -19 -98 l30 -15 34 57 35 57 -23 18
c-13 10 -25 18 -28 18 -2 0 -15 -17 -29 -37z"/>
<path d="M7082 5241 l-24 -18 36 -56 37 -57 29 15 30 15 -38 60 c-20 33 -39
60 -42 60 -3 0 -16 -9 -28 -19z"/>
<path d="M2545 5196 c-51 -121 -72 -182 -67 -187 9 -9 113 -42 116 -38 2 2 22
50 43 106 l40 101 -26 12 c-94 44 -90 44 -106 6z"/>
<path d="M4175 5200 c-20 -21 -26 -33 -18 -41 12 -12 77 47 67 62 -9 15 -19
11 -49 -21z"/>
<path d="M4391 5206 c-12 -13 -19 -26 -14 -29 10 -6 64 39 56 47 -11 10 -19 7
-42 -18z"/>
<path d="M6266 5222 c-3 -5 8 -18 24 -30 31 -23 51 -14 22 10 -27 23 -40 29
-46 20z"/>
<path d="M6474 5219 c-3 -6 6 -24 22 -40 21 -22 30 -26 41 -17 11 9 9 16 -13
40 -30 30 -39 34 -50 17z"/>
<path d="M1606 5202 c-5 -9 -55 -193 -68 -247 -5 -22 -11 -47 -13 -56 -4 -13
13 -19 90 -34 52 -10 96 -17 97 -14 2 2 18 60 35 129 18 69 35 135 39 146 5
20 -3 25 -85 52 -50 17 -93 27 -95 24z"/>
<path d="M3946 5175 c-29 -38 -31 -48 -13 -63 9 -7 21 2 45 34 30 41 31 44 13
53 -16 9 -23 5 -45 -24z"/>
<path d="M6700 5195 c-10 -12 -7 -21 16 -49 50 -61 81 -33 34 30 -28 38 -33
40 -50 19z"/>
<path d="M3266 5093 l-36 -74 36 -15 c20 -8 37 -14 39 -12 5 5 65 127 65 132
0 2 -15 13 -33 24 l-34 19 -37 -74z"/>
<path d="M3690 5110 c-31 -49 -32 -51 -14 -65 11 -8 21 -14 24 -15 3 0 19 22
37 49 32 49 32 54 -3 74 -7 4 -25 -14 -44 -43z"/>
<path d="M6947 5142 c-15 -16 -14 -21 15 -65 27 -42 32 -45 52 -35 11 6 22 12
24 13 5 4 -62 105 -69 105 -3 0 -13 -8 -22 -18z"/>
<path d="M7349 5143 l-25 -16 34 -66 c20 -36 36 -67 37 -69 1 -1 18 5 39 13
l36 15 -35 70 c-19 39 -41 70 -48 69 -6 0 -24 -8 -38 -16z"/>
<path d="M2773 5092 c-9 -20 -26 -65 -39 -99 l-23 -62 50 -16 c28 -10 53 -14
56 -11 8 8 74 178 71 181 -2 1 -25 12 -51 23 l-48 21 -16 -37z"/>
<path d="M4276 5101 c-15 -16 -23 -31 -18 -35 5 -3 21 8 36 23 15 16 23 31 18
35 -5 3 -21 -8 -36 -23z"/>
<path d="M6387 5122 c-8 -11 40 -58 50 -48 4 3 -5 18 -19 32 -14 14 -28 22
-31 16z"/>
<path d="M1872 5003 c-17 -60 -34 -125 -37 -145 -6 -33 -5 -38 16 -43 13 -3
52 -11 86 -19 l62 -14 6 40 c4 21 19 84 35 138 l27 100 -66 20 c-36 11 -73 23
-82 25 -13 4 -22 -16 -47 -102z"/>
<path d="M4066 5080 c-28 -34 -32 -45 -17 -55 15 -9 66 64 54 76 -7 7 -19 0
-37 -21z"/>
<path d="M6594 5095 c-8 -21 39 -75 56 -65 11 7 8 16 -14 44 -30 40 -34 42
-42 21z"/>
<path d="M3433 5006 l-32 -64 30 -12 c35 -15 30 -19 64 49 l27 55 -22 18 c-12
10 -25 18 -29 18 -4 0 -21 -29 -38 -64z"/>
<path d="M3833 5019 c-24 -36 -25 -41 -11 -56 15 -14 19 -12 42 26 30 47 32
57 11 65 -10 3 -24 -8 -42 -35z"/>
<path d="M6818 5048 c-14 -12 -13 -17 11 -56 24 -38 29 -41 45 -29 18 13 17
15 -8 55 -30 48 -27 46 -48 30z"/>
<path d="M2968 4958 c-39 -103 -39 -99 11 -114 25 -8 45 -13 46 -11 1 1 15 38
32 82 l31 80 -37 17 c-20 9 -41 17 -46 17 -6 1 -23 -32 -37 -71z"/>
<path d="M2166 4968 c-40 -139 -55 -202 -51 -206 9 -10 139 -32 145 -25 7 8
48 164 57 213 4 24 0 27 -54 44 -32 10 -63 21 -70 23 -7 3 -18 -16 -27 -49z"/>
<path d="M4171 4986 c-13 -14 -20 -29 -16 -35 6 -10 55 37 55 53 0 13 -18 5
-39 -18z"/>
<path d="M6490 5003 c1 -14 38 -53 50 -53 6 0 2 13 -10 30 -20 28 -40 40 -40
23z"/>
<path d="M3584 4929 c-14 -28 -24 -52 -22 -54 2 -1 13 -7 25 -14 21 -11 24 -8
48 40 21 40 24 54 14 65 -21 25 -38 15 -65 -37z"/>
<path d="M7049 4970 c-15 -9 -14 -15 10 -62 14 -29 27 -54 27 -56 1 -1 13 2
27 9 l26 12 -27 53 c-27 55 -35 61 -63 44z"/>
<path d="M3960 4938 c-20 -34 -21 -49 -4 -55 12 -4 56 71 47 81 -13 12 -24 6
-43 -26z"/>
<path d="M6695 4961 c-9 -16 35 -80 51 -74 18 7 18 5 -7 47 -21 36 -33 44 -44
27z"/>
<path d="M3167 4876 c-15 -39 -27 -74 -27 -78 0 -7 69 -32 75 -26 6 5 55 141
53 143 -2 2 -19 10 -39 18 l-35 14 -27 -71z"/>
<path d="M2413 4818 c-17 -62 -30 -114 -29 -115 1 -1 31 -9 67 -16 l65 -14 28
109 c15 61 26 111 24 112 -6 6 -102 36 -113 36 -6 0 -25 -51 -42 -112z"/>
<path d="M6912 4888 c-6 -9 -4 -26 9 -55 19 -44 25 -49 47 -35 10 7 9 18 -7
55 -21 49 -31 56 -49 35z"/>
<path d="M4077 4859 c-10 -18 -15 -34 -11 -38 8 -8 44 37 44 55 0 23 -14 16
-33 -17z"/>
<path d="M6587 4884 c-8 -9 27 -64 41 -64 10 0 9 7 -3 29 -16 32 -29 44 -38
35z"/>
<path d="M3351 4827 c-39 -90 -37 -106 15 -107 16 0 25 13 42 62 12 33 21 62
20 62 -2 1 -16 7 -31 14 -27 12 -28 11 -46 -31z"/>
<path d="M2660 4768 c-12 -46 -24 -91 -27 -100 -3 -12 4 -19 24 -24 15 -3 41
-9 58 -13 l29 -7 23 90 c13 50 23 96 23 102 0 10 -70 34 -98 34 -5 0 -19 -37
-32 -82z"/>
<path d="M3872 4786 c-18 -39 -19 -45 -5 -50 19 -8 19 -8 37 36 13 29 13 38 3
47 -10 8 -18 0 -35 -33z"/>
<path d="M6791 4820 c-13 -7 -12 -14 4 -49 10 -23 22 -41 27 -41 18 0 19 29 1
64 -13 26 -22 33 -32 26z"/>
<path d="M1481 4678 c-12 -73 -24 -147 -27 -165 -5 -36 -2 -37 123 -48 l71 -7
7 49 c4 26 14 96 24 156 l18 107 -21 5 c-12 3 -52 11 -89 20 -38 8 -72 15 -76
15 -4 0 -17 -60 -30 -132z"/>
<path d="M3501 4744 c-12 -32 -20 -58 -18 -60 1 -2 14 -7 27 -12 24 -9 26 -6
46 47 l21 56 -21 12 c-31 18 -31 18 -55 -43z"/>
<path d="M2882 4701 c-30 -109 -33 -100 43 -116 31 -6 31 -6 48 62 9 37 19 77
22 89 5 17 0 22 -33 32 -22 7 -44 12 -49 12 -5 0 -20 -35 -31 -79z"/>
<path d="M3999 4724 c-5 -15 -12 -31 -15 -35 -3 -5 1 -9 9 -9 13 0 37 39 37
60 0 20 -21 9 -31 -16z"/>
<path d="M6677 4715 c16 -33 33 -46 33 -25 0 20 -24 60 -36 60 -11 0 -10 -8 3
-35z"/>
<path d="M3090 4650 c-31 -103 -32 -100 46 -104 12 -1 21 18 35 69 10 39 19
73 19 76 0 4 -18 11 -40 17 l-40 10 -20 -68z"/>
<path d="M2071 4552 c-12 -74 -21 -136 -19 -137 2 -1 38 -5 80 -9 l76 -7 7 58
c4 32 13 89 20 126 9 50 9 70 1 73 -6 2 -41 10 -77 17 l-67 14 -21 -135z"/>
<path d="M3799 4626 c-15 -42 -15 -45 2 -49 24 -6 58 71 37 84 -20 13 -22 12
-39 -35z"/>
<path d="M3276 4608 c-25 -89 -25 -91 12 -99 22 -4 35 -3 37 5 2 6 9 30 15 54
6 24 13 49 16 56 4 11 -40 36 -62 36 -2 0 -10 -24 -18 -52z"/>
<path d="M2365 4616 c-13 -40 -36 -219 -29 -226 5 -4 36 -10 69 -13 l61 -5 16
112 c9 61 15 113 13 115 -2 2 -31 9 -65 16 -46 10 -62 10 -65 1z"/>
<path d="M3436 4548 c-9 -33 -15 -62 -14 -63 2 -2 15 -6 30 -10 25 -6 27 -4
38 37 6 23 13 50 16 59 3 12 -4 20 -24 27 -29 10 -29 10 -46 -50z"/>
<path d="M3933 4579 c-12 -32 -10 -49 7 -49 4 0 11 11 14 24 3 13 9 31 12 40
4 10 1 16 -8 16 -7 0 -19 -14 -25 -31z"/>
<path d="M2601 4511 c-6 -36 -14 -84 -17 -107 l-6 -41 38 -6 c79 -13 82 -12
89 41 3 26 11 69 16 96 5 27 7 51 5 54 -3 2 -29 10 -59 17 l-54 13 -12 -67z"/>
<path d="M3598 4504 c-17 -59 -15 -64 18 -64 18 0 24 8 30 43 11 59 11 59 -12
68 -19 7 -23 2 -36 -47z"/>
<path d="M2837 4513 c-16 -56 -28 -166 -19 -175 5 -5 29 -8 53 -6 l44 3 6 50
c4 28 10 66 14 86 7 36 6 37 -30 43 -20 4 -42 9 -50 12 -7 3 -15 -3 -18 -13z"/>
<path d="M3755 4497 c-2 -7 -8 -29 -14 -50 -9 -36 -8 -38 11 -35 15 2 24 15
33 45 11 38 11 42 -7 46 -11 3 -21 0 -23 -6z"/>
<path d="M3886 4443 c-2 -10 -7 -28 -11 -40 -5 -17 -2 -23 9 -23 8 0 17 8 20
18 2 9 7 27 11 40 5 16 2 22 -9 22 -8 0 -17 -8 -20 -17z"/>
<path d="M3226 4399 c-4 -24 -9 -59 -12 -76 -6 -33 -6 -33 33 -33 l40 0 11 67
c6 37 10 69 8 70 -2 2 -19 6 -38 10 -35 5 -35 5 -42 -38z"/>
<path d="M1437 4328 c-4 -46 -7 -122 -7 -170 l0 -88 100 0 100 0 0 78 c0 42 3
114 6 158 l7 82 -74 6 c-41 4 -86 9 -100 12 -26 5 -26 5 -32 -78z"/>
<path d="M3391 4349 c-6 -34 -8 -66 -5 -70 3 -5 18 -9 33 -9 26 0 28 3 37 65
9 59 8 65 -7 65 -10 0 -24 3 -32 6 -11 4 -17 -9 -26 -57z"/>
<path d="M1746 4301 c-3 -41 -6 -109 -6 -153 l0 -78 90 0 90 0 0 78 c0 42 3
107 6 143 l7 66 -90 9 -90 9 -7 -74z"/>
<path d="M3556 4319 c-8 -58 -9 -54 21 -63 24 -8 31 6 36 74 2 31 -1 35 -24
38 -25 3 -27 0 -33 -49z"/>
<path d="M2037 4265 c-4 -43 -7 -104 -7 -137 l0 -58 78 0 79 0 6 127 c4 70 5
128 4 130 -2 2 -37 6 -79 9 l-75 7 -6 -78z"/>
<path d="M3710 4321 c0 -10 -3 -33 -6 -51 -6 -29 -5 -31 17 -28 19 2 25 11 30
43 8 47 5 55 -22 55 -12 0 -19 -7 -19 -19z"/>
<path d="M2316 4266 c-3 -28 -6 -84 -6 -123 l0 -73 69 0 68 0 6 112 c3 62 5
114 3 115 -2 2 -32 7 -68 11 l-66 8 -6 -50z"/>
<path d="M3848 4273 c-3 -21 0 -41 6 -45 14 -10 17 -5 26 42 6 34 5 40 -10 40
-13 0 -19 -10 -22 -37z"/>
<path d="M2566 4245 c-3 -26 -6 -76 -6 -111 l0 -64 59 0 58 0 7 46 c3 26 6 73
6 105 0 58 0 59 -29 59 -16 0 -42 3 -58 6 -29 6 -30 5 -37 -41z"/>
<path d="M2796 4214 c-3 -26 -6 -69 -6 -95 l0 -49 55 0 55 0 2 80 c0 44 1 86
2 93 1 8 -17 13 -50 15 l-51 3 -7 -47z"/>
<path d="M3010 4186 c0 -29 -3 -68 -6 -85 l-6 -31 50 0 50 0 4 78 c2 44 -1 80
-7 84 -5 4 -27 8 -47 8 l-38 0 0 -54z"/>
<path d="M3200 4191 c0 -15 -3 -49 -6 -75 l-7 -46 47 0 46 0 0 75 0 75 -40 0
c-37 0 -40 -2 -40 -29z"/>
<path d="M3368 4135 l-3 -65 38 0 37 0 0 65 0 65 -34 0 -34 0 -4 -65z"/>
<path d="M3540 4177 c0 -8 -3 -35 -6 -61 -7 -46 -7 -46 23 -46 29 0 30 2 36
52 4 28 5 53 4 54 -1 0 -14 4 -29 8 -20 5 -28 3 -28 -7z"/>
<path d="M3690 4120 c0 -42 3 -50 19 -50 13 0 20 10 25 31 11 57 8 69 -19 69
-23 0 -25 -3 -25 -50z"/>
<path d="M3830 4115 c0 -32 4 -45 14 -45 19 0 32 70 14 81 -24 15 -28 10 -28
-36z"/>
<path d="M1743 3849 c4 -84 8 -153 10 -155 3 -4 168 14 173 18 1 2 0 67 -3
146 l-6 142 -90 0 -90 0 6 -151z"/>
<path d="M2310 3928 c0 -40 3 -96 6 -125 l7 -52 66 6 c36 3 67 7 69 8 1 1 -1
54 -4 118 l-7 117 -69 0 -68 0 0 -72z"/>
<path d="M2560 3928 c0 -40 3 -90 6 -110 6 -33 10 -38 34 -38 15 0 42 3 59 6
l31 7 0 72 c0 40 -3 87 -6 104 -6 30 -7 31 -65 31 l-59 0 0 -72z"/>
<path d="M2793 3904 c3 -53 7 -98 9 -100 2 -2 28 -1 57 3 47 5 52 8 47 27 -3
12 -6 54 -6 94 l0 72 -56 0 -57 0 6 -96z"/>
<path d="M3196 3923 c4 -43 7 -78 8 -79 0 -1 18 1 39 4 l38 4 -3 72 -3 71 -43
3 -43 3 7 -78z"/>
<path d="M3370 3931 c0 -74 2 -77 48 -65 21 6 23 11 20 68 -3 61 -3 61 -35 64
l-33 3 0 -70z"/>
<path d="M3530 3978 c0 -13 3 -40 7 -61 5 -33 9 -38 30 -35 13 2 23 6 23 11 0
4 0 30 0 57 0 49 -1 50 -30 50 -24 0 -30 -4 -30 -22z"/>
<path d="M3687 3993 c-2 -5 -2 -27 1 -50 4 -38 7 -43 29 -43 21 0 24 4 19 23
-3 12 -6 34 -6 50 0 20 -5 27 -19 27 -11 0 -22 -3 -24 -7z"/>
<path d="M3844 3818 c3 -13 6 -33 6 -45 0 -16 4 -21 15 -17 27 11 16 84 -12
84 -11 0 -14 -6 -9 -22z"/>
<path d="M3706 3821 c-3 -5 -3 -29 0 -53 6 -41 9 -44 30 -40 19 3 23 9 19 28
-3 13 -7 35 -10 49 -5 24 -28 34 -39 16z"/>
<path d="M3555 3758 c9 -66 9 -66 39 -61 22 5 24 9 20 37 -12 74 -14 76 -40
76 -25 0 -26 -1 -19 -52z"/>
<path d="M3402 3793 c-19 -4 -22 -9 -18 -31 3 -15 8 -44 12 -64 6 -38 12 -42
49 -32 20 5 20 9 11 70 -5 35 -14 63 -20 63 -6 -1 -21 -4 -34 -6z"/>
<path d="M3222 3772 c-10 -7 -10 -23 -1 -80 l12 -71 31 6 c17 3 34 8 37 12 4
3 2 36 -3 74 -10 63 -12 67 -37 67 -14 0 -32 -4 -39 -8z"/>
<path d="M3033 3752 c-9 -5 -8 -26 2 -86 8 -43 15 -79 17 -80 2 -2 21 1 43 6
l41 8 -11 78 -11 77 -34 3 c-19 1 -40 -1 -47 -6z"/>
<path d="M2833 3733 c-13 -2 -23 -12 -22 -21 0 -28 26 -162 31 -168 5 -4 86
11 93 18 2 1 -2 41 -9 88 -12 84 -12 85 -41 86 -17 1 -40 0 -52 -3z"/>
<path d="M2623 3713 c-50 -5 -49 -1 -26 -131 15 -86 18 -93 37 -88 12 3 38 9
59 12 41 7 41 5 28 71 -6 26 -13 69 -16 96 -5 36 -10 47 -23 45 -9 -1 -36 -3
-59 -5z"/>
<path d="M2358 3683 c-16 -2 -28 -9 -28 -14 0 -25 34 -215 39 -221 4 -4 35 -2
70 4 60 11 63 13 58 38 -3 14 -11 65 -18 113 l-12 87 -41 -1 c-23 -1 -53 -4
-68 -6z"/>
<path d="M3883 3682 c-10 -6 -10 -16 -1 -45 13 -43 35 -44 30 -1 -5 38 -15 55
-29 46z"/>
<path d="M2127 3659 c-38 -4 -70 -9 -72 -11 -4 -4 35 -260 40 -266 1 -1 36 5
76 14 l75 16 -20 129 c-11 71 -22 128 -25 128 -3 -1 -37 -5 -74 -10z"/>
<path d="M3743 3654 c-12 -5 1 -71 18 -88 18 -19 30 9 21 49 -8 38 -17 48 -39
39z"/>
<path d="M3601 3621 c-11 -7 -11 -17 -1 -60 11 -46 15 -51 34 -45 29 9 29 7
13 60 -15 51 -23 59 -46 45z"/>
<path d="M1532 3598 l-83 -10 5 -32 c3 -17 15 -92 27 -167 l21 -135 99 20 c78
16 98 24 94 36 -5 19 -32 179 -40 248 -5 40 -11 52 -23 51 -10 -1 -54 -6 -100
-11z"/>
<path d="M3448 3592 c-33 -4 -32 0 -12 -74 16 -55 18 -57 43 -51 14 3 27 7 29
8 4 3 -25 116 -30 119 -2 1 -15 0 -30 -2z"/>
<path d="M3267 3553 c-10 -3 -17 -10 -14 -16 2 -7 10 -36 18 -66 15 -59 23
-66 61 -52 l26 10 -16 65 c-17 69 -22 73 -75 59z"/>
<path d="M3920 3526 c0 -20 25 -66 37 -66 10 0 13 5 8 18 -4 9 -10 25 -12 35
-4 14 -33 26 -33 13z"/>
<path d="M2908 3477 c-27 -5 -48 -14 -48 -21 0 -14 39 -156 46 -167 2 -4 25
-1 49 8 38 13 44 18 39 36 -2 12 -13 51 -22 87 l-17 65 -47 -8z"/>
<path d="M3790 3478 c0 -30 25 -78 40 -75 15 3 15 21 0 63 -10 24 -40 34 -40
12z"/>
<path d="M3652 3442 c-10 -7 -9 -18 5 -55 17 -47 27 -54 51 -39 10 7 9 18 -5
55 -17 47 -27 54 -51 39z"/>
<path d="M2673 3427 c-39 -9 -42 -12 -37 -36 13 -58 48 -172 54 -176 4 -2 29
3 56 12 l50 15 -26 99 c-27 107 -23 104 -97 86z"/>
<path d="M3498 3393 c-22 -5 -22 0 3 -67 23 -58 28 -63 59 -46 18 9 17 12 -3
65 -12 30 -26 54 -32 54 -5 -1 -18 -3 -27 -6z"/>
<path d="M2434 3376 c-28 -6 -50 -15 -48 -21 25 -94 58 -212 61 -217 2 -4 31
3 64 14 53 18 60 23 55 42 -3 11 -15 60 -27 109 -24 96 -19 93 -105 73z"/>
<path d="M3987 3382 c-3 -4 3 -22 12 -41 21 -40 36 -27 20 18 -11 30 -23 39
-32 23z"/>
<path d="M6677 3355 c-20 -42 -4 -58 18 -16 8 17 15 35 15 41 0 21 -17 9 -33
-25z"/>
<path d="M3343 3340 c-13 -5 -23 -13 -23 -18 0 -9 40 -112 46 -121 7 -9 65 23
61 33 -3 6 -13 35 -23 64 -19 54 -24 57 -61 42z"/>
<path d="M2178 3322 c-65 -14 -67 -16 -61 -41 13 -57 62 -224 67 -228 7 -7
145 40 140 48 -2 4 -17 58 -33 120 -15 62 -32 114 -37 115 -5 1 -39 -5 -76
-14z"/>
<path d="M3860 3315 c0 -30 29 -75 45 -69 18 7 19 6 -2 49 -17 36 -43 48 -43
20z"/>
<path d="M3173 3288 c-18 -6 -33 -15 -33 -19 0 -9 49 -141 54 -146 6 -6 77 28
74 35 -2 4 -14 38 -28 75 -14 37 -27 67 -30 66 -3 -1 -20 -6 -37 -11z"/>
<path d="M1894 3262 l-71 -17 37 -138 c20 -75 40 -140 44 -144 12 -12 161 43
158 58 -52 211 -67 259 -81 258 -9 -1 -48 -8 -87 -17z"/>
<path d="M3731 3271 c-11 -7 -11 -16 4 -55 17 -45 28 -53 52 -38 8 5 6 20 -9
55 -22 49 -25 52 -47 38z"/>
<path d="M6921 3233 c-21 -43 -21 -46 -4 -58 16 -12 20 -9 40 28 27 52 28 63
4 70 -14 3 -23 -6 -40 -40z"/>
<path d="M4067 3244 c-7 -8 23 -64 35 -64 14 0 8 24 -10 48 -10 13 -21 20 -25
16z"/>
<path d="M6601 3221 c-12 -16 -17 -32 -12 -35 5 -4 19 7 30 23 12 16 17 32 12
35 -5 4 -19 -7 -30 -23z"/>
<path d="M2980 3222 c-25 -8 -46 -16 -47 -17 -3 -1 30 -87 57 -152 l9 -22 43
19 c24 11 42 23 41 27 -1 5 -15 42 -30 84 l-28 76 -45 -15z"/>
<path d="M1608 3201 c-43 -10 -80 -20 -83 -23 -6 -6 73 -300 83 -310 13 -13
177 47 176 63 -1 8 -18 75 -37 149 -22 88 -39 136 -48 137 -8 1 -49 -6 -91
-16z"/>
<path d="M7061 3164 c-23 -53 -23 -55 -5 -69 22 -16 23 -15 58 47 l27 47 -28
14 -28 15 -24 -54z"/>
<path d="M3578 3203 c-23 -6 -23 -2 9 -67 24 -50 29 -54 47 -44 12 6 23 12 25
14 7 6 -44 103 -54 102 -5 0 -18 -2 -27 -5z"/>
<path d="M6711 3151 c-15 -29 -18 -42 -10 -47 11 -7 29 10 50 47 6 11 4 21 -4
28 -11 8 -19 2 -36 -28z"/>
<path d="M3940 3169 c0 -5 11 -26 24 -45 18 -27 25 -32 34 -21 8 9 5 21 -10
45 -19 31 -48 44 -48 21z"/>
<path d="M2760 3153 c-25 -9 -46 -17 -47 -18 -3 -2 67 -187 73 -194 3 -3 105
39 104 43 -8 32 -71 181 -77 182 -4 1 -28 -5 -53 -13z"/>
<path d="M3428 3134 l-27 -14 32 -60 c34 -63 41 -68 71 -45 19 15 19 16 -9 75
-16 33 -31 60 -34 60 -3 -1 -18 -7 -33 -16z"/>
<path d="M7205 3089 c-29 -59 -29 -61 -10 -75 10 -8 24 -14 30 -14 10 0 65
100 65 119 0 6 -42 31 -54 31 -1 0 -15 -27 -31 -61z"/>
<path d="M6510 3095 c-15 -16 -20 -29 -14 -34 5 -5 18 3 32 19 28 36 13 48
-18 15z"/>
<path d="M6830 3075 c-20 -37 -22 -46 -10 -60 12 -14 16 -11 41 27 34 51 34
50 11 65 -16 10 -22 5 -42 -32z"/>
<path d="M3815 3100 c-8 -13 35 -90 51 -90 24 0 25 20 3 60 -22 39 -42 50 -54
30z"/>
<path d="M2533 3078 c-58 -17 -62 -20 -54 -41 5 -12 23 -60 41 -107 18 -47 34
-87 36 -89 7 -8 114 42 114 53 0 9 -69 199 -73 202 -1 0 -30 -8 -64 -18z"/>
<path d="M3265 3063 c-16 -8 -31 -17 -33 -18 -2 -2 13 -35 33 -74 33 -67 37
-71 58 -60 47 25 47 27 14 99 -18 38 -34 69 -37 69 -3 0 -18 -7 -35 -16z"/>
<path d="M7360 3010 c-19 -38 -32 -71 -29 -73 21 -16 61 -38 64 -35 7 8 75
148 71 148 -2 0 -19 6 -38 14 l-35 15 -33 -69z"/>
<path d="M3682 3024 l-23 -16 22 -36 c36 -61 44 -67 67 -50 20 14 20 14 -12
66 -31 50 -32 51 -54 36z"/>
<path d="M4043 3032 c-8 -5 -3 -18 17 -42 22 -27 32 -32 40 -23 9 8 7 18 -11
42 -24 33 -28 35 -46 23z"/>
<path d="M6609 3009 c-31 -44 -10 -60 25 -19 24 29 27 50 6 50 -5 0 -18 -14
-31 -31z"/>
<path d="M6960 2988 c-30 -49 -31 -52 -14 -65 26 -19 30 -17 63 36 l30 49 -24
16 c-23 15 -24 14 -55 -36z"/>
<path d="M2283 2996 c-34 -11 -64 -24 -67 -27 -5 -5 64 -204 82 -236 5 -8 26
-2 74 20 l66 32 -43 114 c-24 62 -45 114 -47 116 -2 1 -31 -7 -65 -19z"/>
<path d="M3073 2977 l-42 -20 40 -79 c21 -43 44 -78 50 -78 7 0 27 9 45 20
l33 21 -40 77 c-23 42 -42 78 -42 78 -1 1 -21 -8 -44 -19z"/>
<path d="M4260 2986 c0 -17 39 -48 51 -40 7 4 -36 54 -46 54 -3 0 -5 -6 -5
-14z"/>
<path d="M6400 2975 c-13 -14 -20 -28 -17 -32 8 -7 57 35 57 49 0 15 -16 8
-40 -17z"/>
<path d="M3546 2945 c-10 -8 -23 -16 -29 -18 -11 -3 59 -117 72 -117 5 0 18 8
29 18 21 17 21 17 -16 74 -34 52 -39 55 -56 43z"/>
<path d="M3927 2948 c-15 -12 -14 -16 17 -53 31 -36 36 -38 50 -25 13 13 11
19 -17 53 -28 32 -35 36 -50 25z"/>
<path d="M6721 2921 c-28 -35 -29 -40 -15 -52 14 -11 20 -8 45 21 32 39 36 55
14 63 -9 4 -26 -8 -44 -32z"/>
<path d="M7093 2898 l-32 -53 20 -17 c12 -10 25 -18 29 -18 5 0 24 26 44 57
l35 58 -22 12 c-35 19 -40 16 -74 -39z"/>
<path d="M2870 2887 c-25 -12 -47 -23 -49 -24 -3 -2 85 -171 95 -182 5 -6 95
50 92 57 -2 4 -22 44 -43 89 -22 45 -42 82 -45 82 -3 0 -25 -10 -50 -22z"/>
<path d="M4155 2901 c-3 -5 5 -22 18 -37 17 -19 29 -25 42 -20 17 6 16 9 -10
36 -30 32 -40 36 -50 21z"/>
<path d="M7732 2824 c-23 -47 -40 -89 -37 -95 4 -5 24 -18 45 -29 45 -23 43
-24 94 77 40 80 42 88 24 96 -7 3 -29 12 -49 20 l-35 16 -42 -85z"/>
<path d="M4370 2882 c0 -5 14 -18 30 -30 23 -17 30 -19 30 -8 0 8 -10 22 -22
30 -25 18 -38 20 -38 8z"/>
<path d="M6280 2865 c-17 -18 -20 -25 -8 -25 8 0 25 11 38 25 17 18 20 25 8
25 -8 0 -25 -11 -38 -25z"/>
<path d="M3382 2852 c-18 -9 -32 -20 -32 -25 0 -5 19 -37 42 -72 l41 -63 29
21 c15 11 28 24 28 29 0 4 -17 34 -38 66 l-38 59 -32 -15z"/>
<path d="M3798 2856 c-24 -18 -23 -21 19 -72 36 -45 36 -45 56 -25 20 19 20
20 -18 65 -21 25 -38 46 -39 46 0 0 -9 -7 -18 -14z"/>
<path d="M6841 2824 c-33 -45 -33 -47 -14 -65 18 -19 19 -18 55 28 34 44 36
49 21 65 -9 10 -19 18 -22 18 -3 -1 -21 -21 -40 -46z"/>
<path d="M7243 2805 l-42 -64 26 -20 c14 -12 30 -21 35 -21 12 0 88 122 82
132 -3 4 -17 14 -32 22 -27 14 -28 13 -69 -49z"/>
<path d="M1714 2812 c-61 -20 -80 -31 -76 -42 13 -44 106 -276 112 -283 4 -5
46 8 93 28 l85 37 -23 52 c-12 28 -37 93 -55 144 -18 50 -38 92 -44 91 -6 0
-48 -13 -92 -27z"/>
<path d="M4050 2805 c-11 -14 -8 -21 20 -51 31 -31 36 -33 49 -19 14 14 12 19
-20 51 -32 32 -37 34 -49 19z"/>
<path d="M7937 2714 c-27 -53 -45 -100 -40 -104 4 -4 29 -19 55 -34 l48 -27
50 101 c27 55 50 103 50 108 0 7 -95 52 -110 52 -3 0 -27 -43 -53 -96z"/>
<path d="M4281 2786 c-9 -10 -4 -19 23 -40 40 -30 42 -31 49 -13 3 8 -10 25
-28 40 -27 21 -35 24 -44 13z"/>
<path d="M4496 2791 c-3 -5 10 -18 29 -30 28 -16 35 -17 35 -6 0 17 -56 49
-64 36z"/>
<path d="M6157 2779 c-15 -11 -25 -25 -21 -30 6 -10 64 27 64 42 0 14 -12 10
-43 -12z"/>
<path d="M6370 2770 c-25 -21 -32 -32 -24 -40 8 -7 21 -2 47 19 28 22 34 31
24 39 -9 8 -22 3 -47 -18z"/>
<path d="M3205 2749 c-16 -10 -34 -20 -40 -22 -5 -2 11 -34 35 -72 25 -37 48
-72 51 -77 7 -10 79 31 79 45 0 6 -91 148 -94 146 -1 0 -14 -9 -31 -20z"/>
<path d="M3655 2750 c-17 -19 -16 -21 24 -69 42 -49 43 -50 67 -35 13 9 24 19
24 22 0 12 -75 102 -86 102 -6 0 -19 -9 -29 -20z"/>
<path d="M6967 2726 c-43 -52 -44 -57 -16 -82 21 -19 21 -19 45 11 14 17 34
42 45 57 l19 27 -22 15 c-12 9 -25 16 -28 16 -3 0 -22 -20 -43 -44z"/>
<path d="M7409 2695 l-47 -73 27 -19 c14 -11 31 -22 38 -26 8 -5 30 19 62 67
54 79 54 80 -4 108 l-30 15 -46 -72z"/>
<path d="M4630 2710 c0 -8 51 -40 65 -40 16 0 1 22 -25 35 -34 18 -40 18 -40
5z"/>
<path d="M6021 2701 c-20 -11 -29 -21 -23 -25 15 -9 74 22 67 34 -7 12 -3 13
-44 -9z"/>
<path d="M6704 2673 c-39 -41 -40 -43 -23 -59 17 -15 20 -15 45 5 15 12 34 31
42 42 13 19 12 23 -4 38 -18 16 -21 14 -60 -26z"/>
<path d="M2403 2679 c-35 -16 -63 -31 -63 -34 0 -17 112 -225 121 -225 6 0 36
14 67 31 l57 32 -58 113 c-32 63 -59 114 -60 113 -1 0 -30 -14 -64 -30z"/>
<path d="M3924 2696 c-18 -14 -17 -17 26 -61 l45 -46 18 22 c18 22 17 23 -20
61 -42 43 -42 43 -69 24z"/>
<path d="M8169 2596 l-57 -112 64 -36 63 -36 54 101 c74 141 72 134 32 152
-19 8 -50 21 -67 29 l-33 14 -56 -112z"/>
<path d="M4181 2676 c-9 -11 -4 -20 26 -45 43 -35 51 -37 60 -15 4 12 -5 26
-28 45 -39 33 -43 34 -58 15z"/>
<path d="M4417 2683 c-13 -12 -7 -19 32 -41 32 -18 40 -20 44 -8 4 10 -6 23
-27 35 -37 23 -40 24 -49 14z"/>
<path d="M6233 2670 c-32 -19 -41 -34 -25 -44 12 -7 72 34 72 50 0 19 -9 18
-47 -6z"/>
<path d="M6475 2674 c-11 -9 -29 -22 -40 -30 -18 -13 -18 -15 -3 -30 15 -15
19 -14 53 11 33 26 43 54 20 61 -5 2 -19 -4 -30 -12z"/>
<path d="M3517 2651 c-16 -10 -28 -22 -27 -27 0 -5 22 -35 47 -67 l45 -58 29
27 c28 27 28 27 9 53 -10 14 -31 41 -47 59 l-28 32 -28 -19z"/>
<path d="M7122 2636 c-12 -18 -34 -43 -47 -56 l-25 -24 32 -26 32 -27 50 60
50 60 -28 23 c-15 13 -30 24 -34 24 -4 0 -17 -15 -30 -34z"/>
<path d="M3008 2636 c-21 -12 -40 -25 -44 -28 -3 -4 20 -45 51 -92 l56 -86 45
32 44 31 -20 31 c-11 17 -35 55 -53 84 -17 28 -34 52 -37 51 -3 0 -22 -11 -42
-23z"/>
<path d="M7594 2583 c-27 -43 -50 -80 -52 -84 -2 -4 17 -21 41 -37 l44 -31 40
62 c22 34 48 74 57 88 l16 26 -48 26 -49 27 -49 -77z"/>
<path d="M4566 2593 c-8 -19 -10 -16 32 -37 32 -16 52 -15 52 4 0 5 -18 19
-39 30 -35 17 -40 18 -45 3z"/>
<path d="M6088 2589 c-34 -18 -52 -49 -28 -49 14 0 80 33 80 39 -1 25 -18 28
-52 10z"/>
<path d="M6816 2561 l-46 -47 25 -24 26 -24 50 50 50 50 -29 21 -29 22 -47
-48z"/>
<path d="M2149 2565 c-46 -21 -73 -38 -71 -47 4 -17 112 -231 122 -242 9 -9
144 64 141 76 -1 4 -28 61 -60 127 l-58 119 -74 -33z"/>
<path d="M4920 2586 c0 -11 40 -26 71 -26 24 0 5 28 -22 34 -44 9 -49 8 -49
-8z"/>
<path d="M5718 2591 c-20 -4 -25 -10 -19 -19 10 -16 72 -3 79 16 4 13 -15 14
-60 3z"/>
<path d="M8411 2473 c-34 -69 -61 -126 -59 -128 2 -1 34 -19 72 -40 55 -31 70
-35 77 -24 26 40 119 229 119 242 0 8 -8 17 -17 20 -10 3 -43 16 -74 30 l-55
25 -63 -125z"/>
<path d="M4073 2558 c-18 -20 -17 -21 17 -50 57 -48 66 -51 82 -25 14 21 12
24 -33 59 l-47 37 -19 -21z"/>
<path d="M4331 2561 c-9 -16 -5 -23 32 -45 38 -23 43 -23 55 -8 14 18 12 20
-40 51 -36 22 -37 22 -47 2z"/>
<path d="M6560 2542 c-44 -34 -49 -45 -28 -69 10 -13 22 -7 85 44 21 17 21 19
5 39 l-18 21 -44 -35z"/>
<path d="M5070 2557 c0 -18 21 -27 61 -27 19 0 29 5 29 15 0 8 -6 15 -14 15
-7 0 -28 3 -45 6 -24 5 -31 3 -31 -9z"/>
<path d="M5568 2563 c-34 -5 -38 -33 -5 -33 40 0 66 11 60 26 -3 8 -10 13 -17
13 -6 -1 -23 -4 -38 -6z"/>
<path d="M3342 2523 l-33 -28 56 -68 56 -68 29 21 c16 12 32 25 35 30 6 10
-91 140 -104 140 -4 0 -21 -12 -39 -27z"/>
<path d="M5230 2536 c0 -17 37 -30 67 -24 10 2 18 10 18 18 0 10 -13 16 -42
18 -33 2 -43 0 -43 -12z"/>
<path d="M5380 2530 c0 -15 7 -20 29 -20 39 0 61 9 61 26 0 10 -13 14 -45 14
-38 0 -45 -3 -45 -20z"/>
<path d="M2792 2510 l-52 -31 35 -55 c72 -112 88 -134 97 -134 6 0 29 14 52
32 22 17 42 33 44 34 4 2 -112 183 -118 183 -3 1 -29 -13 -58 -29z"/>
<path d="M7787 2451 c-31 -48 -57 -90 -57 -93 0 -7 87 -68 97 -68 9 0 123 171
123 186 0 7 -89 64 -102 64 -2 0 -30 -40 -61 -89z"/>
<path d="M4717 2516 c-8 -20 73 -53 84 -34 14 21 11 24 -30 36 -48 15 -48 15
-54 -2z"/>
<path d="M5918 2517 c-26 -10 -35 -26 -22 -39 3 -4 25 0 49 9 31 10 42 19 38
29 -6 16 -26 17 -65 1z"/>
<path d="M3667 2462 l-27 -28 55 -54 55 -54 29 28 30 28 -56 54 c-30 30 -56
54 -57 54 -1 0 -14 -13 -29 -28z"/>
<path d="M6943 2438 l-52 -53 24 -29 23 -29 32 26 c17 14 42 40 57 57 l26 31
-23 24 c-13 14 -26 25 -30 25 -3 0 -29 -24 -57 -52z"/>
<path d="M4490 2465 c-15 -18 -17 -17 39 -45 35 -18 45 -19 52 -8 14 22 11 27
-31 48 -47 24 -44 24 -60 5z"/>
<path d="M4878 2462 c-5 -17 2 -22 38 -31 54 -14 51 -14 57 8 3 14 -2 20 -22
25 -14 3 -36 8 -47 12 -16 4 -23 0 -26 -14z"/>
<path d="M5758 2468 c-40 -10 -43 -15 -29 -36 12 -20 93 3 89 25 -4 21 -15 23
-60 11z"/>
<path d="M6142 2459 c-37 -17 -41 -22 -32 -39 13 -24 10 -25 64 2 38 18 43 24
35 40 -12 22 -13 22 -67 -3z"/>
<path d="M3966 2436 c-9 -14 -16 -27 -16 -30 0 -2 23 -23 51 -45 l51 -41 20
26 c12 14 17 29 12 33 -5 4 -30 24 -55 44 l-46 37 -17 -24z"/>
<path d="M4236 2431 c-17 -19 -16 -21 35 -55 l54 -36 13 26 c7 14 12 27 10 28
-2 1 -22 14 -45 29 -24 15 -44 27 -46 27 -2 0 -12 -9 -21 -19z"/>
<path d="M6651 2411 c-43 -38 -43 -38 -26 -65 l17 -26 27 20 c14 10 39 30 56
44 30 24 30 24 11 45 -26 28 -34 26 -85 -18z"/>
<path d="M5043 2425 c-8 -22 0 -27 52 -32 40 -5 45 -3 45 14 0 15 -9 22 -31
27 -47 9 -59 7 -66 -9z"/>
<path d="M5578 2433 c-31 -5 -31 -5 -22 -27 6 -16 41 -21 80 -10 15 4 20 11
17 25 -5 19 -17 21 -75 12z"/>
<path d="M3158 2391 l-37 -28 66 -82 66 -83 41 41 40 41 -30 32 c-17 18 -43
50 -59 71 -15 20 -32 37 -39 37 -6 0 -28 -13 -48 -29z"/>
<path d="M5210 2395 c0 -25 2 -26 53 -23 44 3 52 6 52 23 0 17 -8 20 -52 23
-51 3 -53 2 -53 -23z"/>
<path d="M5380 2395 c0 -23 3 -25 49 -25 52 0 65 8 55 34 -4 12 -20 16 -55 16
-46 0 -49 -2 -49 -25z"/>
<path d="M7423 2347 l-60 -73 41 -36 42 -36 30 37 c16 20 45 56 64 79 l35 44
-35 29 c-19 15 -40 29 -46 29 -6 0 -38 -33 -71 -73z"/>
<path d="M2560 2376 c-30 -18 -54 -39 -52 -45 1 -6 32 -57 68 -111 45 -69 69
-98 78 -93 55 34 104 78 98 88 -52 85 -126 195 -131 195 -3 -1 -31 -16 -61
-34z"/>
<path d="M8005 2309 l-67 -103 34 -27 c18 -15 45 -34 59 -43 l26 -15 63 96
c34 53 65 104 67 113 4 14 -48 51 -109 78 -4 2 -37 -43 -73 -99z"/>
<path d="M4656 2384 c-8 -21 -10 -19 47 -43 l48 -21 8 23 c8 19 4 24 -28 39
-46 22 -67 22 -75 2z"/>
<path d="M5973 2387 c-41 -16 -45 -20 -36 -44 l8 -20 52 20 c46 17 51 22 42
38 -11 22 -21 22 -66 6z"/>
<path d="M7084 2293 l-61 -62 34 -33 33 -32 65 64 64 65 -37 30 -37 30 -61
-62z"/>
<path d="M3510 2323 l-31 -28 66 -65 66 -65 31 34 30 33 -58 59 c-32 33 -62
59 -66 59 -4 0 -21 -12 -38 -27z"/>
<path d="M4412 2329 c-17 -26 -10 -35 47 -64 l48 -24 12 26 c6 14 10 27 9 28
-2 1 -26 14 -54 28 -49 25 -50 25 -62 6z"/>
<path d="M5845 2344 c-5 -2 -29 -8 -53 -14 -38 -10 -42 -14 -36 -33 3 -12 8
-23 9 -25 5 -5 95 20 100 28 8 12 -9 47 -20 44z"/>
<path d="M6222 2324 c-47 -21 -53 -26 -47 -46 11 -34 11 -34 71 -5 51 25 54
29 43 50 -6 12 -12 23 -13 23 0 1 -25 -9 -54 -22z"/>
<path d="M4837 2333 c-17 -16 -5 -41 22 -46 16 -3 40 -9 54 -12 20 -5 25 -2
29 18 4 23 0 27 -38 36 -50 13 -58 13 -67 4z"/>
<path d="M6768 2281 c-31 -25 -57 -48 -57 -51 0 -3 10 -18 24 -34 l24 -30 58
49 c32 27 60 50 62 52 3 2 -8 17 -25 32 l-29 29 -57 -47z"/>
<path d="M3842 2297 c-12 -13 -22 -26 -22 -29 0 -3 27 -26 60 -52 l60 -48 20
24 c11 12 19 28 20 34 0 11 -97 94 -110 94 -3 0 -16 -10 -28 -23z"/>
<path d="M6490 2294 c-19 -14 -42 -29 -50 -34 -12 -7 -12 -12 0 -34 7 -14 17
-26 22 -26 7 0 84 48 107 67 8 6 -22 53 -33 53 -6 -1 -27 -12 -46 -26z"/>
<path d="M5598 2293 c-24 -4 -28 -9 -28 -35 0 -26 3 -29 23 -25 12 3 39 9 60
13 28 5 37 10 33 21 -3 8 -6 19 -6 24 0 9 -30 10 -82 2z"/>
<path d="M2968 2253 c-32 -23 -45 -39 -40 -48 18 -33 134 -166 141 -163 5 2
27 20 50 40 l41 38 -71 85 c-39 47 -72 85 -73 84 0 0 -22 -16 -48 -36z"/>
<path d="M7606 2203 l-69 -86 44 -38 c24 -21 47 -39 51 -39 3 0 38 39 77 88
l70 87 -27 22 c-75 60 -70 61 -146 -34z"/>
<path d="M2322 2240 c-35 -21 -66 -40 -69 -44 -3 -3 24 -52 61 -108 101 -157
83 -147 160 -92 38 27 62 52 59 58 -27 44 -137 212 -142 217 -3 3 -34 -11 -69
-31z"/>
<path d="M5198 2250 l-5 -30 64 0 c64 0 64 0 61 28 -3 25 -6 27 -59 30 -56 3
-57 3 -61 -28z"/>
<path d="M5387 2273 c-4 -3 -7 -17 -7 -30 0 -22 4 -23 60 -23 l60 0 0 30 c0
30 -1 30 -53 30 -30 0 -57 -3 -60 -7z"/>
<path d="M8300 2273 c0 -5 -32 -58 -70 -117 -39 -59 -68 -111 -66 -115 3 -4
32 -26 64 -49 70 -49 58 -57 157 97 52 80 64 106 54 112 -77 47 -139 79 -139
72z"/>
<path d="M4592 2235 c-11 -23 -9 -26 25 -40 69 -29 82 -29 92 -4 8 21 5 26
-27 40 -69 31 -78 31 -90 4z"/>
<path d="M6030 2240 c-37 -15 -45 -22 -42 -41 4 -32 7 -34 52 -19 59 19 74 33
66 58 -9 26 -16 26 -76 2z"/>
<path d="M3346 2174 l-40 -35 74 -74 74 -75 37 43 38 42 -67 68 c-37 37 -69
67 -72 67 -3 -1 -23 -17 -44 -36z"/>
<path d="M4325 2180 l-15 -30 62 -31 c58 -29 62 -30 75 -13 22 31 15 43 -47
74 l-59 30 -16 -30z"/>
<path d="M6288 2178 l-57 -31 15 -28 c8 -16 17 -29 20 -29 4 0 32 14 64 31
l58 31 -16 29 c-10 16 -19 28 -22 28 -3 -1 -31 -15 -62 -31z"/>
<path d="M7238 2143 l-67 -68 33 -39 33 -40 29 21 c28 21 76 69 104 106 12 16
9 22 -20 52 -19 19 -37 35 -40 35 -3 0 -36 -30 -72 -67z"/>
<path d="M4785 2173 c-8 -33 -2 -39 56 -53 43 -10 53 -10 60 1 20 32 9 44 -50
60 l-60 15 -6 -23z"/>
<path d="M5845 2181 c-56 -15 -60 -18 -57 -43 4 -31 12 -33 78 -17 52 13 56
17 46 50 l-7 25 -60 -15z"/>
<path d="M3704 2145 c-31 -41 -31 -41 54 -107 l57 -46 28 38 27 38 -70 56 -69
56 -27 -35z"/>
<path d="M6574 2138 l-62 -40 20 -34 c12 -20 25 -31 31 -27 74 44 117 76 117
86 -1 12 -35 58 -42 56 -1 0 -31 -19 -64 -41z"/>
<path d="M6896 2123 c-40 -33 -63 -59 -59 -66 4 -7 16 -24 26 -39 l20 -27 68
56 c38 30 69 58 69 60 0 3 -13 20 -29 38 l-29 33 -66 -55z"/>
<path d="M4985 2135 c-3 -8 -7 -21 -9 -29 -6 -18 11 -24 80 -32 l54 -7 0 31
c0 34 0 34 -83 47 -29 5 -38 2 -42 -10z"/>
<path d="M5670 2145 c-8 -2 -31 -6 -51 -9 -33 -6 -35 -8 -31 -37 l5 -31 56 7
c66 8 76 15 67 49 -6 25 -12 28 -46 21z"/>
<path d="M7808 2041 l-77 -96 52 -47 52 -47 28 27 c28 27 137 165 137 174 0 3
-26 23 -57 45 l-58 40 -77 -96z"/>
<path d="M2748 2094 c-27 -20 -48 -40 -48 -44 0 -7 24 -39 141 -183 17 -20 18
-20 71 28 l54 50 -75 92 c-41 51 -80 93 -86 93 -5 0 -31 -17 -57 -36z"/>
<path d="M5443 2122 l-63 -3 0 -34 0 -35 48 0 c69 0 92 9 92 34 0 35 -12 41
-77 38z"/>
<path d="M8547 2116 c-3 -8 -38 -63 -77 -121 -39 -59 -72 -110 -73 -115 -2 -9
131 -110 144 -110 5 0 135 194 172 257 5 8 -17 26 -62 52 -89 52 -97 55 -104
37z"/>
<path d="M5180 2091 c0 -26 4 -31 33 -36 18 -4 49 -5 68 -3 30 3 34 6 34 33
l0 30 -67 3 -68 3 0 -30z"/>
<path d="M6095 2092 c-33 -13 -61 -25 -63 -26 -1 -2 3 -17 9 -34 l11 -31 66
25 c36 13 67 26 68 27 1 1 -5 16 -14 33 l-17 31 -60 -25z"/>
<path d="M4522 2081 c-10 -28 -9 -29 41 -49 29 -11 59 -23 68 -27 12 -5 20 2
28 26 6 18 10 33 9 35 -6 6 -114 44 -125 44 -6 0 -16 -13 -21 -29z"/>
<path d="M3169 2015 l-46 -43 81 -81 82 -81 44 45 45 45 -80 80 -80 79 -46
-44z"/>
<path d="M6364 2017 l-62 -32 16 -32 c9 -18 19 -33 24 -33 7 0 128 58 136 65
8 7 -29 65 -41 65 -6 -1 -40 -15 -73 -33z"/>
<path d="M7401 1976 l-74 -74 39 -46 c21 -25 41 -46 44 -46 3 0 41 36 85 80
l80 81 -42 39 c-23 22 -46 40 -50 40 -5 0 -42 -33 -82 -74z"/>
<path d="M4731 2008 c-6 -17 -10 -32 -9 -33 8 -6 139 -37 142 -34 2 2 7 18 10
35 7 30 6 31 -53 47 -79 22 -77 22 -90 -15z"/>
<path d="M3556 1981 c-20 -20 -36 -40 -36 -43 0 -8 150 -128 159 -128 13 1 62
83 54 90 -4 4 -38 32 -74 63 l-67 55 -36 -37z"/>
<path d="M3908 1980 l-28 -38 79 -50 78 -50 22 38 c11 21 21 40 21 43 0 3 -24
20 -52 38 -29 17 -62 38 -73 45 -18 12 -23 9 -47 -26z"/>
<path d="M6684 1971 l-71 -47 21 -37 c12 -20 26 -37 31 -37 14 0 145 89 145
98 0 4 -12 22 -27 39 l-28 31 -71 -47z"/>
<path d="M7030 1955 l-76 -61 29 -40 c16 -21 33 -39 38 -39 5 0 43 27 84 59
l74 60 -30 38 c-17 21 -34 39 -37 41 -4 2 -41 -24 -82 -58z"/>
<path d="M4945 1960 c-8 -38 -7 -40 47 -51 84 -16 95 -13 100 26 5 40 3 40
-83 50 l-57 7 -7 -32z"/>
<path d="M5653 1981 c-53 -9 -56 -12 -48 -51 l7 -32 60 6 c75 9 91 15 84 33
-3 8 -6 23 -6 34 0 21 -18 23 -97 10z"/>
<path d="M2518 1927 c-32 -23 -57 -45 -58 -48 0 -12 172 -219 183 -219 7 0 36
23 65 51 46 45 51 53 40 69 -62 83 -154 190 -162 190 -6 0 -37 -20 -68 -43z"/>
<path d="M5165 1952 c-10 -27 -5 -60 11 -66 9 -3 45 -6 80 -6 l64 0 0 35 c0
41 -3 42 -87 47 -47 3 -64 1 -68 -10z"/>
<path d="M5448 1963 l-68 -4 0 -41 0 -40 74 4 c41 2 77 6 80 9 7 7 -5 80 -13
77 -3 -1 -36 -3 -73 -5z"/>
<path d="M8045 1898 c-32 -40 -71 -87 -87 -104 l-28 -30 63 -56 62 -55 39 45
c58 66 149 183 145 186 -40 30 -124 86 -130 86 -3 0 -33 -33 -64 -72z"/>
<path d="M4450 1919 c-8 -17 -9 -34 -4 -39 7 -7 131 -60 140 -60 8 0 25 73 18
80 -10 8 -120 50 -133 50 -5 0 -14 -14 -21 -31z"/>
<path d="M6143 1923 c-36 -14 -60 -29 -58 -36 3 -7 9 -24 14 -40 l11 -27 67
25 c37 15 72 30 76 34 11 11 -20 71 -36 70 -6 0 -40 -12 -74 -26z"/>
<path d="M4131 1844 c-12 -19 -21 -37 -21 -39 0 -6 161 -87 165 -83 6 6 35 81
33 83 -6 5 -148 75 -152 75 -2 0 -13 -16 -25 -36z"/>
<path d="M4685 1866 c-2 -6 -8 -25 -13 -42 l-10 -31 81 -21 c45 -12 82 -20 83
-19 1 1 5 20 8 43 l7 41 -76 20 c-53 14 -78 17 -80 9z"/>
<path d="M5930 1855 l-76 -20 9 -43 c5 -27 13 -42 20 -39 7 2 42 12 80 22 71
19 77 27 54 75 l-12 26 -75 -21z"/>
<path d="M6459 1841 l-76 -38 20 -39 c11 -21 21 -40 22 -42 2 -2 39 15 84 38
l81 40 -22 40 c-13 22 -25 40 -28 39 -3 0 -39 -17 -81 -38z"/>
<path d="M7587 1792 l-86 -87 48 -53 48 -54 92 92 92 93 -28 29 c-15 17 -40
38 -54 48 l-26 19 -86 -87z"/>
<path d="M6805 1792 c-44 -29 -79 -56 -78 -60 1 -4 12 -26 25 -49 l24 -42 85
55 c46 31 86 57 87 59 2 2 -11 23 -30 47 l-33 43 -80 -53z"/>
<path d="M3778 1801 c-16 -22 -28 -41 -28 -44 0 -7 155 -107 166 -107 9 0 54
69 54 84 0 7 -148 106 -158 106 -4 0 -19 -18 -34 -39z"/>
<path d="M7180 1777 c-42 -34 -77 -66 -78 -72 -1 -5 13 -31 31 -57 l33 -46 87
70 c48 38 87 74 87 79 0 11 -70 89 -79 88 -3 0 -40 -28 -81 -62z"/>
<path d="M4917 1813 c-3 -4 -8 -24 -12 -44 l-7 -36 82 -13 c44 -7 82 -11 84
-9 2 2 6 23 10 45 l6 41 -51 7 c-29 4 -64 10 -79 13 -15 3 -30 1 -33 -4z"/>
<path d="M5681 1807 l-63 -10 5 -39 c3 -22 8 -42 11 -45 3 -3 42 0 86 7 66 10
80 15 76 29 -2 9 -7 28 -10 44 -7 30 -7 30 -105 14z"/>
<path d="M2283 1757 c-40 -29 -72 -56 -72 -60 -1 -7 80 -111 172 -221 l24 -30
39 31 c21 17 54 47 72 66 30 31 32 35 16 48 -10 8 -53 59 -97 114 -44 55 -80
101 -81 102 0 0 -33 -22 -73 -50z"/>
<path d="M8294 1747 c-26 -34 -70 -88 -97 -120 l-50 -58 63 -57 c35 -31 67
-58 71 -60 14 -6 212 235 204 248 -2 4 -36 30 -74 58 l-69 50 -48 -61z"/>
<path d="M5398 1783 c-14 -3 -18 -15 -18 -50 l0 -46 86 6 c47 2 87 7 89 9 2 2
1 22 -2 46 l-6 42 -66 -1 c-36 -1 -74 -3 -83 -6z"/>
<path d="M4366 1729 c-9 -23 -15 -43 -13 -45 7 -8 150 -64 162 -64 14 0 38 81
27 91 -6 5 -148 59 -156 59 -2 0 -11 -19 -20 -41z"/>
<path d="M6228 1741 c-37 -15 -70 -30 -73 -33 -8 -8 16 -88 26 -88 12 0 169
61 169 66 0 12 -41 84 -48 83 -4 -1 -37 -13 -74 -28z"/>
<path d="M2756 1644 l-59 -56 103 -103 104 -104 56 62 57 61 -99 98 c-55 54
-100 98 -101 98 -1 -1 -29 -26 -61 -56z"/>
<path d="M7778 1602 l-97 -97 57 -63 57 -63 98 98 c53 54 97 103 97 109 0 9
-65 76 -101 102 -13 9 -31 -5 -111 -86z"/>
<path d="M4016 1645 l-25 -45 89 -45 c49 -25 92 -45 95 -45 6 0 30 47 39 77 6
20 -2 27 -73 63 -44 22 -85 40 -90 40 -5 0 -21 -20 -35 -45z"/>
<path d="M6554 1647 l-80 -42 20 -47 c11 -27 23 -48 28 -48 14 0 166 79 173
89 7 13 -36 91 -50 90 -5 0 -46 -19 -91 -42z"/>
<path d="M4611 1639 c-7 -23 -9 -45 -4 -49 10 -9 166 -51 171 -46 6 7 23 88
19 93 -6 5 -145 43 -160 43 -8 0 -19 -19 -26 -41z"/>
<path d="M5970 1660 l-65 -18 2 -42 c1 -24 6 -47 11 -52 7 -7 166 32 178 44 2
3 -2 22 -9 44 -16 46 -27 48 -117 24z"/>
<path d="M3636 1606 l-36 -51 23 -18 c56 -44 169 -109 176 -101 5 5 20 29 34
54 l26 45 -94 61 -94 61 -35 -51z"/>
<path d="M6948 1606 c-42 -28 -84 -55 -93 -61 -15 -9 -14 -15 10 -57 15 -26
31 -50 36 -53 5 -4 52 22 104 56 l95 61 -37 52 c-20 28 -37 52 -37 52 -1 1
-36 -21 -78 -50z"/>
<path d="M3207 1595 l-47 -52 92 -75 c51 -41 98 -78 104 -81 15 -8 99 102 88
113 -21 19 -184 150 -186 149 -2 -1 -24 -25 -51 -54z"/>
<path d="M4863 1574 l-9 -52 95 -15 c53 -8 97 -14 97 -13 1 0 4 24 6 52 l5 51
-92 14 -92 15 -10 -52z"/>
<path d="M5702 1608 l-64 -10 7 -51 c4 -29 8 -53 9 -54 2 -3 181 29 185 33 2
2 0 23 -5 46 -8 39 -12 43 -39 44 -16 1 -58 -3 -93 -8z"/>
<path d="M5126 1574 c-3 -9 -6 -33 -6 -53 l0 -38 93 -6 c50 -3 95 -3 100 0 4
2 7 26 7 52 l0 48 -46 7 c-84 11 -141 7 -148 -10z"/>
<path d="M5412 1583 l-33 -4 3 -52 3 -52 95 4 c52 2 97 5 99 6 1 2 0 27 -4 54
l-7 51 -61 -2 c-34 0 -77 -3 -95 -5z"/>
<path d="M6295 1537 c-44 -17 -81 -32 -82 -32 -3 -2 28 -98 33 -104 7 -8 186
64 191 76 6 16 -35 93 -50 92 -6 -1 -48 -15 -92 -32z"/>
<path d="M2535 1444 l-70 -64 116 -115 115 -116 62 70 62 70 -107 109 -108
109 -70 -63z"/>
<path d="M7981 1396 l-104 -104 40 -49 c64 -76 78 -86 101 -74 10 6 63 56 116
112 l96 101 -62 59 c-35 32 -68 58 -73 59 -6 0 -57 -47 -114 -104z"/>
<path d="M3898 1440 c-16 -28 -28 -52 -28 -55 0 -5 195 -105 204 -105 5 0 58
112 54 115 -12 9 -189 95 -195 95 -5 0 -20 -23 -35 -50z"/>
<path d="M6665 1443 c-49 -25 -92 -47 -94 -49 -5 -4 47 -114 54 -114 4 0 51
23 106 51 l100 51 -29 51 c-16 28 -33 52 -38 53 -5 2 -49 -18 -99 -43z"/>
<path d="M4556 1469 c-23 -72 -27 -92 -20 -99 17 -15 185 -53 193 -44 5 5 13
30 18 55 l10 47 -86 22 c-47 13 -92 25 -98 27 -7 3 -15 -1 -17 -8z"/>
<path d="M6036 1454 c-49 -13 -90 -25 -92 -27 -1 -1 3 -27 9 -58 l10 -57 96
26 c53 14 100 29 105 33 9 8 -21 110 -32 108 -4 -1 -47 -12 -96 -25z"/>
<path d="M3030 1397 c-25 -27 -48 -55 -52 -62 -7 -12 67 -81 183 -168 l36 -27
47 66 c26 37 44 70 39 74 -24 22 -189 157 -198 161 -5 3 -30 -17 -55 -44z"/>
<path d="M7080 1383 c-52 -35 -99 -64 -104 -66 -11 -4 55 -127 68 -127 9 0
163 96 200 125 18 13 17 16 -20 67 -20 29 -40 55 -43 58 -3 4 -49 -22 -101
-57z"/>
<path d="M7515 1364 c-55 -46 -103 -84 -108 -84 -4 0 16 -32 44 -70 l51 -71
47 38 c25 20 76 62 113 92 l67 54 -29 36 c-15 20 -41 48 -57 62 l-28 27 -100
-84z"/>
<path d="M3477 1387 c-21 -30 -37 -56 -37 -59 0 -5 58 -45 164 -113 l52 -33
36 63 36 63 -99 66 c-54 36 -103 66 -107 66 -5 0 -25 -24 -45 -53z"/>
<path d="M4825 1387 c-4 -15 -8 -41 -8 -59 -2 -35 -1 -36 145 -56 64 -10 68
-6 68 74 l0 41 -52 6 c-29 3 -74 9 -100 13 -45 6 -47 5 -53 -19z"/>
<path d="M5740 1396 l-75 -11 4 -55 c1 -30 5 -58 7 -61 4 -7 196 21 207 30 4
4 3 31 -4 59 -12 59 -6 58 -139 38z"/>
<path d="M5105 1366 c-2 -6 -6 -34 -9 -62 l-5 -51 105 -7 c58 -4 109 -4 114
-1 15 9 12 115 -2 120 -32 10 -200 11 -203 1z"/>
<path d="M5468 1373 l-88 -4 0 -66 0 -66 68 6 c37 4 86 7 110 7 l42 0 0 43 c0
60 -10 87 -29 85 -9 -1 -55 -4 -103 -5z"/>
<path d="M4191 1333 c-8 -15 -20 -42 -27 -60 l-13 -31 105 -41 c58 -23 109
-41 113 -41 9 0 47 118 40 123 -2 2 -44 18 -94 36 -49 19 -95 36 -101 38 -6 2
-16 -9 -23 -24z"/>
<path d="M6390 1322 c-52 -20 -97 -37 -99 -39 -4 -3 26 -113 33 -120 2 -3 54
14 114 37 l110 42 -26 59 c-14 32 -28 59 -31 58 -3 0 -49 -17 -101 -37z"/>
<path d="M3765 1208 c-20 -34 -32 -64 -28 -68 4 -4 57 -33 117 -65 l109 -56
29 66 c16 37 28 68 26 71 -2 2 -52 28 -111 58 l-107 55 -35 -61z"/>
<path d="M6784 1212 l-111 -57 30 -67 30 -67 119 60 119 60 -32 57 c-18 31
-35 60 -38 64 -3 3 -56 -19 -117 -50z"/>
<path d="M4486 1251 c-11 -20 -37 -113 -33 -118 8 -7 220 -63 225 -59 5 6 31
120 28 124 -9 8 -217 59 -220 53z"/>
<path d="M6100 1230 c-57 -15 -105 -32 -107 -36 -1 -5 3 -34 10 -64 12 -51 15
-55 40 -52 26 3 198 50 204 56 3 3 -38 127 -40 125 -1 -1 -49 -14 -107 -29z"/>
<path d="M2820 1163 l-61 -68 38 -33 c21 -18 78 -64 127 -103 l89 -69 53 72
c30 40 54 76 54 80 0 4 -9 12 -20 18 -11 6 -60 43 -108 83 -48 40 -92 76 -99
80 -7 4 -36 -20 -73 -60z"/>
<path d="M7319 1216 c-8 -8 -59 -43 -114 -78 l-101 -63 42 -73 41 -72 91 57
c49 32 104 69 122 83 l31 25 -45 63 c-55 79 -50 74 -67 58z"/>
<path d="M7795 1221 c-3 -5 -49 -44 -103 -87 -53 -42 -101 -81 -106 -85 -9 -8
26 -65 82 -137 l18 -23 108 88 c60 48 117 94 127 102 18 13 15 17 -42 82 -61
69 -73 77 -84 60z"/>
<path d="M3308 1156 l-46 -64 71 -47 c39 -26 94 -63 123 -81 l53 -34 41 69
c22 38 40 72 40 74 0 3 -35 26 -77 53 -43 26 -92 58 -109 71 -17 13 -35 23
-40 23 -5 0 -30 -29 -56 -64z"/>
<path d="M4770 1131 c-6 -31 -13 -61 -15 -67 -3 -11 154 -44 212 -44 30 0 30
1 37 62 7 70 2 77 -54 78 -19 1 -65 7 -102 14 l-67 13 -11 -56z"/>
<path d="M5845 1173 c-38 -6 -83 -12 -100 -13 -52 -1 -58 -10 -50 -82 6 -59 9
-65 28 -62 12 2 66 11 120 20 108 18 105 14 84 99 l-12 51 -70 -13z"/>
<path d="M5074 1082 c-3 -35 -3 -67 2 -72 5 -4 61 -9 124 -11 l115 -4 3 67 c3
80 9 76 -140 80 l-97 3 -7 -63z"/>
<path d="M5520 1143 c-146 -4 -140 -1 -140 -85 l0 -71 61 7 c34 3 85 6 113 6
74 0 78 5 69 81 l-8 64 -95 -2z"/>
<path d="M4069 1063 c-13 -32 -26 -61 -27 -65 -4 -9 69 -43 174 -81 l71 -25
22 70 c13 38 21 71 19 72 -4 4 -224 86 -230 86 -2 0 -15 -26 -29 -57z"/>
<path d="M6526 1094 c-33 -13 -83 -32 -112 -41 l-52 -16 25 -73 24 -73 37 14
c74 26 197 77 204 83 8 8 -47 132 -59 132 -4 -1 -35 -12 -67 -26z"/>
<path d="M3623 964 l-41 -73 61 -35 c87 -48 185 -96 195 -96 8 0 72 130 72
145 0 2 -51 30 -112 61 -62 31 -117 60 -123 64 -6 5 -26 -21 -52 -66z"/>
<path d="M6903 971 c-61 -31 -112 -61 -112 -67 -1 -16 58 -144 67 -144 14 0
252 125 252 133 0 17 -75 137 -85 136 -5 -1 -60 -27 -122 -58z"/>
<path d="M4405 999 c-3 -8 -14 -40 -24 -72 l-20 -58 24 -9 c50 -19 216 -61
227 -58 11 4 37 93 38 129 0 13 -25 23 -103 42 -57 15 -111 29 -120 33 -10 3
-19 1 -22 -7z"/>
<path d="M6160 976 l-116 -31 15 -73 14 -74 31 6 c79 15 226 61 226 70 0 23
-38 130 -46 132 -5 1 -61 -13 -124 -30z"/>
<path d="M3132 914 l-52 -75 137 -89 137 -90 47 82 48 83 -32 19 c-18 11 -76
48 -129 83 -53 35 -98 63 -100 63 -2 -1 -27 -35 -56 -76z"/>
<path d="M4728 923 c-3 -4 -11 -37 -18 -71 -11 -52 -11 -65 0 -72 13 -8 203
-40 238 -40 17 0 20 10 26 71 4 39 4 75 -1 79 -4 4 -51 12 -104 19 -52 7 -105
14 -116 17 -11 3 -23 2 -25 -3z"/>
<path d="M5835 911 c-125 -19 -123 -17 -110 -118 6 -49 8 -53 33 -53 35 1 231
35 237 42 5 5 -1 40 -20 126 -3 12 -11 21 -18 21 -6 -1 -61 -9 -122 -18z"/>
<path d="M5045 812 c-4 -41 -4 -76 -1 -79 8 -9 246 -25 263 -19 9 4 13 27 13
80 0 89 10 84 -157 88 l-111 3 -7 -73z"/>
<path d="M3951 798 c-17 -39 -28 -75 -24 -78 5 -4 67 -30 138 -58 l130 -51 22
64 c11 35 24 72 27 83 6 17 -1 23 -46 37 -29 10 -86 31 -126 46 -40 16 -76 29
-81 29 -4 0 -22 -32 -40 -72z"/>
<path d="M6670 861 c-8 -5 -60 -25 -115 -46 -55 -20 -102 -38 -103 -40 -7 -7
43 -148 54 -152 11 -4 200 64 246 89 l25 13 -31 72 c-31 72 -43 82 -76 64z"/>
<path d="M5905 647 c-171 -26 -167 -25 -161 -45 2 -9 7 -47 11 -84 6 -65 8
-68 32 -68 29 0 266 39 271 45 3 3 -28 170 -32 170 0 0 -55 -8 -121 -18z"/>
<path d="M4665 638 c-2 -13 -11 -50 -18 -84 l-14 -61 98 -17 c54 -10 122 -20
152 -23 l55 -6 7 82 c4 45 4 85 0 89 -6 6 -218 40 -257 41 -10 1 -20 -8 -23
-21z"/>
<path d="M5025 610 c-1 -3 -6 -42 -10 -87 -8 -98 -20 -92 170 -95 l130 -3 3
88 3 87 -33 1 c-18 0 -84 4 -146 7 -63 4 -115 5 -117 2z"/>
<path d="M5560 609 c-58 -4 -122 -7 -142 -8 l-38 -1 0 -91 0 -92 133 7 c190
10 178 4 170 90 -9 108 -2 102 -123 95z"/>
<path d="M3831 527 c-21 -45 -35 -85 -32 -90 15 -15 294 -118 301 -110 8 9 47
126 52 156 2 15 -19 26 -112 61 -63 24 -128 49 -143 55 -28 11 -28 11 -66 -72z"/>
<path d="M6780 593 c-19 -9 -80 -33 -135 -54 -55 -21 -100 -41 -100 -46 0 -22
49 -173 56 -173 19 0 299 113 299 121 0 16 -69 164 -77 165 -4 1 -24 -5 -43
-13z"/>
<path d="M4203 384 l-31 -92 112 -31 c161 -43 206 -54 211 -49 3 2 13 46 23
96 l19 91 -52 11 c-28 6 -97 23 -152 39 l-100 28 -30 -93z"/>
<path d="M6404 460 c-11 -4 -70 -20 -130 -35 -60 -15 -110 -29 -112 -30 -3 -2
8 -51 33 -162 3 -13 11 -23 19 -23 17 0 296 77 303 83 2 3 -8 44 -23 91 -30
91 -38 97 -90 76z"/>
<path d="M4605 358 c-2 -13 -12 -54 -20 -92 -8 -38 -13 -71 -11 -74 16 -15
321 -58 329 -45 2 4 8 49 12 99 l7 91 -72 7 c-40 4 -106 14 -147 22 -95 18
-92 18 -98 -8z"/>
<path d="M5985 365 c-38 -7 -103 -16 -143 -20 -60 -6 -72 -10 -68 -24 3 -9 8
-53 11 -98 6 -75 9 -83 28 -83 32 0 280 40 298 48 14 6 14 16 -4 100 -15 71
-23 92 -36 91 -9 -1 -47 -7 -86 -14z"/>
<path d="M4984 230 l-9 -99 50 -6 c28 -4 104 -7 170 -8 l120 -2 3 97 3 96 -83
6 c-46 3 -119 8 -164 10 l-81 5 -9 -99z"/>
</g>
</svg>
